<svg xmlns:xlink="http://www.w3.org/1999/xlink" role="img" fill="currentColor" stroke="currentColor" aria-label="Sheet Music" width="700" height="121.95500000000001"><style>.abcjs-dragging-in-progress text, .abcjs-dragging-in-progress tspan {-webkit-touch-callout: none; -webkit-user-select: none; -khtml-user-select: none; -moz-user-select: none; -ms-user-select: none; user-select: none;}</style><title>Sheet Music</title><g><g><path d="M 15 60.11 L 685 60.11 L 685 60.81 L 15 60.81 z" stroke="none" fill="currentColor" class="abcjs-top-line"></path><path d="M 15 67.86 L 685 67.86 L 685 68.56 L 15 68.56 z" stroke="none" fill="currentColor"></path><path d="M 15 75.61 L 685 75.61 L 685 76.31 L 15 76.31 z" stroke="none" fill="currentColor"></path><path d="M 15 83.36 L 685 83.36 L 685 84.06 L 15 84.06 z" stroke="none" fill="currentColor"></path><path d="M 15 91.11 L 685 91.11 L 685 91.81 L 15 91.81 z" stroke="none" fill="currentColor"></path></g><g fill="currentColor" stroke="none" data-name="staff-extra clef"><path data-name="clefs.G" d="M 29.689999999999998 46.295000000000016c 0.09 -0.09 0.24 -0.06 0.36 0c 0.12 0.09 0.57 0.6 0.96 1.11c 1.77 2.34 3.21 5.85 3.57 8.73c 0.21 1.56 0.03 3.27 -0.45 4.86c -0.69 2.31 -1.92 4.47 -4.23 7.44c -0.3 0.39 -0.57 0.72 -0.6 0.75c -0.03 0.06 0 0.15 0.18 0.78c 0.54 1.68 1.38 4.44 1.68 5.49l 0.09 0.42l 0.39 0c 1.47 0.09 2.76 0.51 3.96 1.29c 1.83 1.23 3.06 3.21 3.39 5.52c 0.09 0.45 0.12 1.29 0.06 1.74c -0.09 1.02 -0.33 1.83 -0.75 2.73c -0.84 1.71 -2.28 3.06 -4.02 3.72l -0.33 0.12l 0.03 1.26c 0 1.74 -0.06 3.63 -0.21 4.62c -0.45 3.06 -2.19 5.49 -4.47 6.21c -0.57 0.18 -0.9 0.21 -1.59 0.21c -0.69 0 -1.02 -0.03 -1.65 -0.21c -1.14 -0.27 -2.13 -0.84 -2.94 -1.65c -0.99 -0.99 -1.56 -2.16 -1.71 -3.54c -0.09 -0.81 0.06 -1.53 0.45 -2.13c 0.63 -0.99 1.83 -1.56 3 -1.53c 1.5 0.09 2.64 1.32 2.73 2.94c 0.06 1.47 -0.93 2.7 -2.37 2.97c -0.45 0.06 -0.84 0.03 -1.29 -0.09l -0.21 -0.09l 0.09 0.12c 0.39 0.54 0.78 0.93 1.32 1.26c 1.35 0.87 3.06 1.02 4.35 0.36c 1.44 -0.72 2.52 -2.28 2.97 -4.35c 0.15 -0.66 0.24 -1.5 0.3 -3.03c 0.03 -0.84 0.03 -2.94 0 -3c -0.03 0 -0.18 0 -0.36 0.03c -0.66 0.12 -0.99 0.12 -1.83 0.12c -1.05 0 -1.71 -0.06 -2.61 -0.3c -4.02 -0.99 -7.11 -4.35 -7.8 -8.46c -0.12 -0.66 -0.12 -0.99 -0.12 -1.83c 0 -0.84 0 -1.14 0.15 -1.92c 0.36 -2.28 1.41 -4.62 3.3 -7.29l 2.79 -3.6c 0.54 -0.66 0.96 -1.2 0.96 -1.23c 0 -0.03 -0.09 -0.33 -0.18 -0.69c -0.96 -3.21 -1.41 -5.28 -1.59 -7.68c -0.12 -1.38 -0.15 -3.09 -0.06 -3.96c 0.33 -2.67 1.38 -5.07 3.12 -7.08c 0.36 -0.42 0.99 -1.05 1.17 -1.14zm 2.01 4.71c -0.15 -0.3 -0.3 -0.54 -0.3 -0.54c -0.03 0 -0.18 0.09 -0.3 0.21c -2.4 1.74 -3.87 4.2 -4.26 7.11c -0.06 0.54 -0.06 1.41 -0.03 1.89c 0.09 1.29 0.48 3.12 1.08 5.22c 0.15 0.42 0.24 0.78 0.24 0.81c 0 0.03 0.84 -1.11 1.23 -1.68c 1.89 -2.73 2.88 -5.07 3.15 -7.53c 0.09 -0.57 0.12 -1.74 0.06 -2.37c -0.09 -1.23 -0.27 -1.92 -0.87 -3.12zm -2.94 20.7c -0.21 -0.72 -0.39 -1.32 -0.42 -1.32c 0 0 -1.2 1.47 -1.86 2.37c -2.79 3.63 -4.02 6.3 -4.35 9.3c -0.03 0.21 -0.03 0.69 -0.03 1.08c 0 0.69 0 0.75 0.06 1.11c 0.12 0.54 0.27 0.99 0.51 1.47c 0.69 1.38 1.83 2.55 3.42 3.42c 0.96 0.54 2.07 0.9 3.21 1.08c 0.78 0.12 2.04 0.12 2.94 -0.03c 0.51 -0.06 0.45 -0.03 0.42 -0.3c -0.24 -3.33 -0.72 -6.33 -1.62 -10.08c -0.09 -0.39 -0.18 -0.75 -0.18 -0.78c -0.03 -0.03 -0.42 0 -0.81 0.09c -0.9 0.18 -1.65 0.57 -2.22 1.14c -0.72 0.72 -1.08 1.65 -1.05 2.64c 0.06 0.96 0.48 1.83 1.23 2.58c 0.36 0.36 0.72 0.63 1.17 0.9c 0.33 0.18 0.36 0.21 0.42 0.33c 0.18 0.42 -0.18 0.9 -0.6 0.87c -0.18 -0.03 -0.84 -0.36 -1.26 -0.63c -0.78 -0.51 -1.38 -1.11 -1.86 -1.83c -1.77 -2.7 -0.99 -6.42 1.71 -8.19c 0.3 -0.21 0.81 -0.48 1.17 -0.63c 0.3 -0.09 1.02 -0.3 1.14 -0.3c 0.06 0 0.09 0 0.09 -0.03c 0.03 -0.03 -0.51 -1.92 -1.23 -4.26zm 3.78 7.41c -0.18 -0.03 -0.36 -0.06 -0.39 -0.06c -0.03 0 0 0.21 0.18 1.02c 0.75 3.18 1.26 6.3 1.5 9.09c 0.06 0.72 0 0.69 0.51 0.42c 0.78 -0.36 1.44 -0.96 1.98 -1.77c 1.08 -1.62 1.2 -3.69 0.3 -5.55c -0.81 -1.62 -2.31 -2.79 -4.08 -3.15z"></path></g><g fill="currentColor" stroke="none" data-name="staff-extra key-signature"><path data-name="accidentals.sharp" d="M 54.781000000000006 49.265000000000015c 0.21 -0.12 0.54 -0.03 0.66 0.24c 0.06 0.12 0.06 0.21 0.06 2.31c 0 1.23 0 2.22 0.03 2.22c 0 0 0.27 -0.12 0.6 -0.24c 0.69 -0.27 0.78 -0.3 0.96 -0.15c 0.21 0.15 0.21 0.18 0.21 1.38c 0 1.02 0 1.11 -0.06 1.2c -0.03 0.06 -0.09 0.12 -0.12 0.15c -0.06 0.03 -0.42 0.21 -0.84 0.36l -0.75 0.33l -0.03 2.43c 0 1.32 0 2.43 0.03 2.43c 0 0 0.27 -0.12 0.6 -0.24c 0.69 -0.27 0.78 -0.3 0.96 -0.15c 0.21 0.15 0.21 0.18 0.21 1.38c 0 1.02 0 1.11 -0.06 1.2c -0.03 0.06 -0.09 0.12 -0.12 0.15c -0.06 0.03 -0.42 0.21 -0.84 0.36l -0.75 0.33l -0.03 2.52c 0 2.28 -0.03 2.55 -0.06 2.64c -0.21 0.36 -0.72 0.36 -0.93 0c -0.03 -0.09 -0.06 -0.33 -0.06 -2.43l 0 -2.31l -1.29 0.51l -1.26 0.51l 0 2.43c 0 2.58 0 2.52 -0.15 2.67c -0.06 0.09 -0.27 0.18 -0.36 0.18c -0.12 0 -0.33 -0.09 -0.39 -0.18c -0.15 -0.15 -0.15 -0.09 -0.15 -2.43c 0 -1.23 0 -2.22 -0.03 -2.22c 0 0 -0.27 0.12 -0.6 0.24c -0.69 0.27 -0.78 0.3 -0.96 0.15c -0.21 -0.15 -0.21 -0.18 -0.21 -1.38c 0 -1.02 0 -1.11 0.06 -1.2c 0.03 -0.06 0.09 -0.12 0.12 -0.15c 0.06 -0.03 0.42 -0.21 0.84 -0.36l 0.78 -0.33l 0 -2.43c 0 -1.32 0 -2.43 -0.03 -2.43c 0 0 -0.27 0.12 -0.6 0.24c -0.69 0.27 -0.78 0.3 -0.96 0.15c -0.21 -0.15 -0.21 -0.18 -0.21 -1.38c 0 -1.02 0 -1.11 0.06 -1.2c 0.03 -0.06 0.09 -0.12 0.12 -0.15c 0.06 -0.03 0.42 -0.21 0.84 -0.36l 0.78 -0.33l 0 -2.52c 0 -2.28 0.03 -2.55 0.06 -2.64c 0.21 -0.36 0.72 -0.36 0.93 0c 0.03 0.09 0.06 0.33 0.06 2.43l 0.03 2.31l 1.26 -0.51l 1.26 -0.51l 0 -2.43c 0 -2.28 0 -2.43 0.06 -2.55c 0.06 -0.12 0.12 -0.18 0.27 -0.24zm -0.33 10.65l 0 -2.43l -1.29 0.51l -1.26 0.51l 0 2.46l 0 2.43l 0.09 -0.03c 0.06 -0.03 0.63 -0.27 1.29 -0.51l 1.17 -0.48l 0 -2.46z"></path></g><g fill="currentColor" stroke="none" data-name="staff-extra time-signature"><g data-name="12"><path d="M 70.601 60.89500000000001c 0.06 -0.06 0.21 -0.03 0.66 0.15c 0.81 0.39 1.08 0.39 1.83 0.03c 0.21 -0.09 0.39 -0.15 0.42 -0.15c 0.12 0 0.21 0.09 0.27 0.21c 0.06 0.12 0.06 0.33 0.06 5.94c 0 3.93 0 5.85 0.03 6.03c 0.06 0.36 0.15 0.69 0.27 0.96c 0.36 0.75 0.93 1.17 1.68 1.26c 0.3 0.03 0.39 0.09 0.39 0.3c 0 0.15 -0.03 0.18 -0.09 0.24c -0.06 0.06 -0.09 0.06 -0.48 0.06c -0.42 0 -0.69 -0.03 -2.1 -0.24c -0.9 -0.15 -1.77 -0.15 -2.67 0c -1.41 0.21 -1.68 0.24 -2.1 0.24c -0.39 0 -0.42 0 -0.48 -0.06c -0.06 -0.06 -0.06 -0.09 -0.06 -0.24c 0 -0.21 0.06 -0.27 0.36 -0.3c 0.75 -0.09 1.32 -0.51 1.68 -1.26c 0.12 -0.27 0.21 -0.6 0.27 -0.96c 0.03 -0.18 0.03 -1.59 0.03 -4.29c 0 -3.87 0 -4.05 -0.06 -4.14c -0.09 -0.15 -0.18 -0.24 -0.39 -0.24c -0.12 0 -0.15 0.03 -0.21 0.06c -0.03 0.06 -0.45 0.99 -0.96 2.13c -0.48 1.14 -0.9 2.1 -0.93 2.16c -0.06 0.15 -0.21 0.24 -0.33 0.24c -0.24 0 -0.42 -0.18 -0.42 -0.39c 0 -0.06 3.27 -7.62 3.33 -7.74z"></path><path d="M 80.471 60.985000000000014c 0.57 -0.06 1.68 0 2.34 0.18c 0.69 0.18 1.5 0.54 2.01 0.9c 1.35 0.96 1.95 2.25 1.77 3.81c -0.15 1.35 -0.66 2.34 -1.68 3.15c -0.6 0.48 -1.44 0.93 -3.12 1.65c -1.32 0.57 -1.8 0.81 -2.37 1.14c -0.57 0.33 -0.57 0.33 -0.24 0.27c 0.39 -0.09 1.26 -0.09 1.68 0c 0.72 0.15 1.41 0.45 2.1 0.9c 0.99 0.63 1.86 0.87 2.55 0.75c 0.24 -0.06 0.42 -0.15 0.57 -0.3c 0.12 -0.09 0.3 -0.42 0.3 -0.51c 0 -0.09 0.12 -0.21 0.24 -0.24c 0.18 -0.03 0.39 0.12 0.39 0.3c 0 0.12 -0.15 0.57 -0.3 0.87c -0.54 1.02 -1.56 1.74 -2.79 2.01c -0.42 0.09 -1.23 0.09 -1.62 0.03c -0.81 -0.18 -1.32 -0.45 -2.01 -1.11c -0.45 -0.45 -0.63 -0.57 -0.96 -0.69c -0.84 -0.27 -1.89 0.12 -2.25 0.9c -0.12 0.21 -0.21 0.54 -0.21 0.72c 0 0.12 -0.12 0.21 -0.27 0.24c -0.15 0 -0.27 -0.03 -0.33 -0.15c -0.09 -0.21 0.09 -1.08 0.33 -1.71c 0.24 -0.66 0.66 -1.26 1.29 -1.89c 0.45 -0.45 0.9 -0.81 1.92 -1.56c 1.29 -0.93 1.89 -1.44 2.34 -1.98c 0.87 -1.05 1.26 -2.19 1.2 -3.63c -0.06 -1.29 -0.39 -2.31 -0.96 -2.91c -0.36 -0.33 -0.72 -0.51 -1.17 -0.54c -0.84 -0.03 -1.53 0.42 -1.59 1.05c -0.03 0.33 0.12 0.6 0.57 1.14c 0.45 0.54 0.54 0.87 0.42 1.41c -0.15 0.63 -0.54 1.11 -1.08 1.38c -0.63 0.33 -1.2 0.33 -1.83 0c -0.24 -0.12 -0.33 -0.18 -0.54 -0.39c -0.18 -0.18 -0.27 -0.3 -0.36 -0.51c -0.24 -0.45 -0.27 -0.84 -0.21 -1.38c 0.12 -0.75 0.45 -1.41 1.02 -1.98c 0.72 -0.72 1.74 -1.17 2.85 -1.32z"></path></g><path data-name="8" d="M 76.67 76.48500000000001c 0.33 -0.03 1.02 -0.03 1.32 0c 1.32 0.12 2.49 0.6 3.21 1.32c 0.39 0.39 0.66 0.81 0.78 1.29c 0.09 0.36 0.09 1.08 0 1.44c -0.21 0.84 -0.66 1.59 -1.59 2.55l -0.3 0.3l 0.27 0.18c 1.47 0.93 2.31 2.31 2.25 3.75c -0.03 0.75 -0.24 1.35 -0.63 1.95c -0.45 0.66 -1.02 1.14 -1.83 1.53c -1.8 0.87 -4.2 0.87 -6 0.03c -1.62 -0.78 -2.52 -2.16 -2.46 -3.66c 0.06 -0.99 0.54 -1.77 1.8 -2.97c 0.54 -0.51 0.54 -0.54 0.48 -0.57c -0.39 -0.27 -0.96 -0.78 -1.2 -1.14c -0.75 -1.11 -0.87 -2.4 -0.3 -3.6c 0.69 -1.35 2.25 -2.25 4.2 -2.4zm 1.53 0.69c -0.42 -0.09 -1.11 -0.12 -1.38 -0.06c -0.3 0.06 -0.6 0.18 -0.81 0.3c -0.21 0.12 -0.6 0.51 -0.72 0.72c -0.51 0.87 -0.42 1.89 0.21 2.52c 0.21 0.21 0.36 0.3 1.95 1.23c 0.96 0.54 1.74 0.99 1.77 1.02c 0.09 0 0.63 -0.6 0.99 -1.11c 0.21 -0.36 0.48 -0.87 0.57 -1.23c 0.06 -0.24 0.06 -0.36 0.06 -0.72c 0 -0.45 -0.03 -0.66 -0.15 -0.99c -0.39 -0.81 -1.29 -1.44 -2.49 -1.68zm -1.44 8.07l -1.89 -1.08c -0.03 0 -0.18 0.15 -0.39 0.33c -1.2 1.08 -1.65 1.95 -1.59 3c 0.09 1.59 1.35 2.85 3.21 3.24c 0.33 0.06 0.45 0.06 0.93 0.06c 0.63 0 0.81 -0.03 1.29 -0.27c 0.9 -0.42 1.47 -1.41 1.41 -2.4c -0.06 -0.66 -0.39 -1.29 -0.9 -1.65c -0.12 -0.09 -1.05 -0.63 -2.07 -1.23z"></path></g><g fill="currentColor" stroke="none" data-name="bar"><path d="M 106 91.46L 106 60.46L 110 60.46L 110 91.46z" data-name="bar"></path><path d="M 114 91.46L 114 60.46L 114.6 60.46L 114.6 91.46z" data-name="bar"></path><path data-name="dots.dot" d="M 118.32499999999999 70.4c 0.09 -0.03 0.27 -0.06 0.39 -0.06c 0.96 0 1.74 0.78 1.74 1.71c 0 0.96 -0.78 1.74 -1.71 1.74c -0.96 0 -1.74 -0.78 -1.74 -1.71c 0 -0.78 0.54 -1.5 1.32 -1.68z"></path><path data-name="dots.dot" d="M 118.32499999999999 78.15c 0.09 -0.03 0.27 -0.06 0.39 -0.06c 0.96 0 1.74 0.78 1.74 1.71c 0 0.96 -0.78 1.74 -1.71 1.74c -0.96 0 -1.74 -0.78 -1.74 -1.71c 0 -0.78 0.54 -1.5 1.32 -1.68z"></path></g><g fill="currentColor" stroke="none" data-name="note" selectable="false" data-index="0"><path data-name="A" d="M 146.095 75.78000000000002c 0.36 -0.03 1.2 0 1.53 0.06c 1.17 0.24 1.89 0.84 2.16 1.83c 0.06 0.18 0.06 0.3 0.06 0.66c 0 0.45 0 0.63 -0.15 1.08c -0.66 2.04 -3.06 3.93 -5.52 4.38c -0.54 0.09 -1.44 0.09 -1.83 0.03c -1.23 -0.27 -1.98 -0.87 -2.25 -1.86c -0.06 -0.18 -0.06 -0.3 -0.06 -0.66c 0 -0.45 0 -0.63 0.15 -1.08c 0.24 -0.78 0.75 -1.53 1.44 -2.22c 1.2 -1.2 2.85 -2.01 4.47 -2.22z" class="abcjs-notehead"></path><path d="M 149.81 52.71L 149.81 78.54L 148.81 78.54L 148.81 52.71z" class="abcjs-stem" data-name="stem"></path><text stroke="none" font-size="16" font-style="normal" font-family="Helvetica" font-weight="normal" text-decoration="none" class="" text-anchor="middle" x="144.91" y="38.56" data-name="chord"><tspan x="144.91">Am</tspan></text></g><g fill="currentColor" stroke="none" data-name="note" selectable="false" data-index="1"><path data-name="flags.d8th" d="M 181.64219915476176 69.82500000000002c 0.24 -0.12 0.54 -0.06 0.69 0.15c 0.06 0.06 0.21 0.36 0.39 0.66c 0.84 1.77 1.26 3.36 1.32 5.1c 0.03 1.29 -0.21 2.37 -0.81 3.63c -0.6 1.23 -1.26 2.13 -3.21 4.38c -1.35 1.53 -1.86 2.19 -2.4 2.97c -0.63 0.93 -1.11 1.92 -1.38 2.79c -0.15 0.54 -0.27 1.35 -0.27 1.8l 0 0.15l -0.21 0l -0.21 0l 0 -3.75l 0 -3.75l 0.21 0l 0.21 0l 0.48 -0.3c 1.83 -1.11 3.12 -2.1 4.17 -3.12c 0.78 -0.81 1.32 -1.53 1.71 -2.31c 0.45 -0.93 0.6 -1.74 0.51 -2.88c -0.12 -1.56 -0.63 -3.18 -1.47 -4.68c -0.12 -0.21 -0.15 -0.33 -0.06 -0.51c 0.06 -0.15 0.15 -0.24 0.33 -0.33z"></path><path data-name="e" d="M 182.06219915476177 60.280000000000015c 0.36 -0.03 1.2 0 1.53 0.06c 1.17 0.24 1.89 0.84 2.16 1.83c 0.06 0.18 0.06 0.3 0.06 0.66c 0 0.45 0 0.63 -0.15 1.08c -0.66 2.04 -3.06 3.93 -5.52 4.38c -0.54 0.09 -1.44 0.09 -1.83 0.03c -1.23 -0.27 -1.98 -0.87 -2.25 -1.86c -0.06 -0.18 -0.06 -0.3 -0.06 -0.66c 0 -0.45 0 -0.63 0.15 -1.08c 0.24 -0.78 0.75 -1.53 1.44 -2.22c 1.2 -1.2 2.85 -2.01 4.47 -2.22z" class="abcjs-notehead"></path><path d="M 175.97 91.46L 175.97 65.62L 176.97 65.62L 176.97 91.46z" class="abcjs-stem" data-name="stem"></path></g><g fill="currentColor" stroke="none" data-name="note" selectable="false" data-index="2"><path data-name="e" d="M 207.49484957738088 60.280000000000015c 0.36 -0.03 1.2 0 1.53 0.06c 1.17 0.24 1.89 0.84 2.16 1.83c 0.06 0.18 0.06 0.3 0.06 0.66c 0 0.45 0 0.63 -0.15 1.08c -0.66 2.04 -3.06 3.93 -5.52 4.38c -0.54 0.09 -1.44 0.09 -1.83 0.03c -1.23 -0.27 -1.98 -0.87 -2.25 -1.86c -0.06 -0.18 -0.06 -0.3 -0.06 -0.66c 0 -0.45 0 -0.63 0.15 -1.08c 0.24 -0.78 0.75 -1.53 1.44 -2.22c 1.2 -1.2 2.85 -2.01 4.47 -2.22z" class="abcjs-notehead"></path><path d="M 201.4 91.46L 201.4 65.62L 202.4 65.62L 202.4 91.46z" class="abcjs-stem" data-name="stem"></path></g><g fill="currentColor" stroke="none" data-name="note" selectable="false" data-index="3"><path data-name="flags.d8th" d="M 243.04204873214263 73.70000000000002c 0.24 -0.12 0.54 -0.06 0.69 0.15c 0.06 0.06 0.21 0.36 0.39 0.66c 0.84 1.77 1.26 3.36 1.32 5.1c 0.03 1.29 -0.21 2.37 -0.81 3.63c -0.6 1.23 -1.26 2.13 -3.21 4.38c -1.35 1.53 -1.86 2.19 -2.4 2.97c -0.63 0.93 -1.11 1.92 -1.38 2.79c -0.15 0.54 -0.27 1.35 -0.27 1.8l 0 0.15l -0.21 0l -0.21 0l 0 -3.75l 0 -3.75l 0.21 0l 0.21 0l 0.48 -0.3c 1.83 -1.11 3.12 -2.1 4.17 -3.12c 0.78 -0.81 1.32 -1.53 1.71 -2.31c 0.45 -0.93 0.6 -1.74 0.51 -2.88c -0.12 -1.56 -0.63 -3.18 -1.47 -4.68c -0.12 -0.21 -0.15 -0.33 -0.06 -0.51c 0.06 -0.15 0.15 -0.24 0.33 -0.33z"></path><path data-name="d" d="M 243.46204873214265 64.15500000000002c 0.36 -0.03 1.2 0 1.53 0.06c 1.17 0.24 1.89 0.84 2.16 1.83c 0.06 0.18 0.06 0.3 0.06 0.66c 0 0.45 0 0.63 -0.15 1.08c -0.66 2.04 -3.06 3.93 -5.52 4.38c -0.54 0.09 -1.44 0.09 -1.83 0.03c -1.23 -0.27 -1.98 -0.87 -2.25 -1.86c -0.06 -0.18 -0.06 -0.3 -0.06 -0.66c 0 -0.45 0 -0.63 0.15 -1.08c 0.24 -0.78 0.75 -1.53 1.44 -2.22c 1.2 -1.2 2.85 -2.01 4.47 -2.22z" class="abcjs-notehead"></path><path d="M 237.37 95.33L 237.37 69.5L 238.37 69.5L 238.37 95.33z" class="abcjs-stem" data-name="stem"></path></g><g fill="currentColor" stroke="none" data-name="note" selectable="false" data-index="4"><path data-name="B" d="M 268.8946991547617 71.90500000000002c 0.36 -0.03 1.2 0 1.53 0.06c 1.17 0.24 1.89 0.84 2.16 1.83c 0.06 0.18 0.06 0.3 0.06 0.66c 0 0.45 0 0.63 -0.15 1.08c -0.66 2.04 -3.06 3.93 -5.52 4.38c -0.54 0.09 -1.44 0.09 -1.83 0.03c -1.23 -0.27 -1.98 -0.87 -2.25 -1.86c -0.06 -0.18 -0.06 -0.3 -0.06 -0.66c 0 -0.45 0 -0.63 0.15 -1.08c 0.24 -0.78 0.75 -1.53 1.44 -2.22c 1.2 -1.2 2.85 -2.01 4.47 -2.22z" class="abcjs-notehead"></path><text stroke="none" font-size="16" font-style="normal" font-family="Helvetica" font-weight="normal" text-decoration="none" class="" text-anchor="middle" x="267.71" y="38.56" data-name="chord"><tspan x="267.71">G</tspan></text><path d="M 272.61 44.96L 272.61 75.18L 272.01 75.18L 272.01 44.96z" class="abcjs-stem" data-name="stem"></path></g><g fill="currentColor" stroke="none" data-name="note" selectable="false" data-index="5"><path data-name="A" d="M 294.32734957738086 75.78000000000002c 0.36 -0.03 1.2 0 1.53 0.06c 1.17 0.24 1.89 0.84 2.16 1.83c 0.06 0.18 0.06 0.3 0.06 0.66c 0 0.45 0 0.63 -0.15 1.08c -0.66 2.04 -3.06 3.93 -5.52 4.38c -0.54 0.09 -1.44 0.09 -1.83 0.03c -1.23 -0.27 -1.98 -0.87 -2.25 -1.86c -0.06 -0.18 -0.06 -0.3 -0.06 -0.66c 0 -0.45 0 -0.63 0.15 -1.08c 0.24 -0.78 0.75 -1.53 1.44 -2.22c 1.2 -1.2 2.85 -2.01 4.47 -2.22z" class="abcjs-notehead"></path><path d="M 298.05 44.96L 298.05 79.06L 297.45 79.06L 297.45 44.96z" class="abcjs-stem" data-name="stem"></path></g><g fill="currentColor" stroke="none" data-name="note" selectable="false" data-index="6"><path data-name="B" d="M 319.76 71.90500000000002c 0.36 -0.03 1.2 0 1.53 0.06c 1.17 0.24 1.89 0.84 2.16 1.83c 0.06 0.18 0.06 0.3 0.06 0.66c 0 0.45 0 0.63 -0.15 1.08c -0.66 2.04 -3.06 3.93 -5.52 4.38c -0.54 0.09 -1.44 0.09 -1.83 0.03c -1.23 -0.27 -1.98 -0.87 -2.25 -1.86c -0.06 -0.18 -0.06 -0.3 -0.06 -0.66c 0 -0.45 0 -0.63 0.15 -1.08c 0.24 -0.78 0.75 -1.53 1.44 -2.22c 1.2 -1.2 2.85 -2.01 4.47 -2.22z" class="abcjs-notehead"></path><path d="M 323.48 44.96L 323.48 75.18L 322.88 75.18L 322.88 44.96z" class="abcjs-stem" data-name="stem"></path></g><g fill="currentColor" stroke="none" data-name="note" selectable="false" data-index="7"><path data-name="d" d="M 345.1926504226191 64.15500000000002c 0.36 -0.03 1.2 0 1.53 0.06c 1.17 0.24 1.89 0.84 2.16 1.83c 0.06 0.18 0.06 0.3 0.06 0.66c 0 0.45 0 0.63 -0.15 1.08c -0.66 2.04 -3.06 3.93 -5.52 4.38c -0.54 0.09 -1.44 0.09 -1.83 0.03c -1.23 -0.27 -1.98 -0.87 -2.25 -1.86c -0.06 -0.18 -0.06 -0.3 -0.06 -0.66c 0 -0.45 0 -0.63 0.15 -1.08c 0.24 -0.78 0.75 -1.53 1.44 -2.22c 1.2 -1.2 2.85 -2.01 4.47 -2.22z" class="abcjs-notehead"></path><path d="M 339.1 95.33L 339.1 69.5L 340.1 69.5L 340.1 95.33z" class="abcjs-stem" data-name="stem"></path></g><g fill="currentColor" stroke="none" data-name="note" selectable="false" data-index="8"><path data-name="flags.d8th" d="M 380.73984957738094 81.45000000000002c 0.24 -0.12 0.54 -0.06 0.69 0.15c 0.06 0.06 0.21 0.36 0.39 0.66c 0.84 1.77 1.26 3.36 1.32 5.1c 0.03 1.29 -0.21 2.37 -0.81 3.63c -0.6 1.23 -1.26 2.13 -3.21 4.38c -1.35 1.53 -1.86 2.19 -2.4 2.97c -0.63 0.93 -1.11 1.92 -1.38 2.79c -0.15 0.54 -0.27 1.35 -0.27 1.8l 0 0.15l -0.21 0l -0.21 0l 0 -3.75l 0 -3.75l 0.21 0l 0.21 0l 0.48 -0.3c 1.83 -1.11 3.12 -2.1 4.17 -3.12c 0.78 -0.81 1.32 -1.53 1.71 -2.31c 0.45 -0.93 0.6 -1.74 0.51 -2.88c -0.12 -1.56 -0.63 -3.18 -1.47 -4.68c -0.12 -0.21 -0.15 -0.33 -0.06 -0.51c 0.06 -0.15 0.15 -0.24 0.33 -0.33z"></path><path data-name="B" d="M 381.1598495773809 71.90500000000002c 0.36 -0.03 1.2 0 1.53 0.06c 1.17 0.24 1.89 0.84 2.16 1.83c 0.06 0.18 0.06 0.3 0.06 0.66c 0 0.45 0 0.63 -0.15 1.08c -0.66 2.04 -3.06 3.93 -5.52 4.38c -0.54 0.09 -1.44 0.09 -1.83 0.03c -1.23 -0.27 -1.98 -0.87 -2.25 -1.86c -0.06 -0.18 -0.06 -0.3 -0.06 -0.66c 0 -0.45 0 -0.63 0.15 -1.08c 0.24 -0.78 0.75 -1.53 1.44 -2.22c 1.2 -1.2 2.85 -2.01 4.47 -2.22z" class="abcjs-notehead"></path><path d="M 375.07 103.08L 375.07 75.96L 376.07 75.96L 376.07 103.08z" class="abcjs-stem" data-name="stem"></path></g><g fill="currentColor" stroke="none" data-name="bar"><path d="M 400.5 91.46L 400.5 60.46L 401.1 60.46L 401.1 91.46z" data-name="bar"></path></g><g fill="currentColor" stroke="none" data-name="note" selectable="false" data-index="9"><path data-name="A" d="M 429.59250000000003 75.78000000000002c 0.36 -0.03 1.2 0 1.53 0.06c 1.17 0.24 1.89 0.84 2.16 1.83c 0.06 0.18 0.06 0.3 0.06 0.66c 0 0.45 0 0.63 -0.15 1.08c -0.66 2.04 -3.06 3.93 -5.52 4.38c -0.54 0.09 -1.44 0.09 -1.83 0.03c -1.23 -0.27 -1.98 -0.87 -2.25 -1.86c -0.06 -0.18 -0.06 -0.3 -0.06 -0.66c 0 -0.45 0 -0.63 0.15 -1.08c 0.24 -0.78 0.75 -1.53 1.44 -2.22c 1.2 -1.2 2.85 -2.01 4.47 -2.22z" class="abcjs-notehead"></path><path d="M 433.31 52.71L 433.31 78.54L 432.31 78.54L 432.31 52.71z" class="abcjs-stem" data-name="stem"></path><text stroke="none" font-size="16" font-style="normal" font-family="Helvetica" font-weight="normal" text-decoration="none" class="" text-anchor="middle" x="428.41" y="38.56" data-name="chord"><tspan x="428.41">Am</tspan></text></g><g fill="currentColor" stroke="none" data-name="note" selectable="false" data-index="10"><path data-name="flags.d8th" d="M 465.13969915476184 69.82500000000002c 0.24 -0.12 0.54 -0.06 0.69 0.15c 0.06 0.06 0.21 0.36 0.39 0.66c 0.84 1.77 1.26 3.36 1.32 5.1c 0.03 1.29 -0.21 2.37 -0.81 3.63c -0.6 1.23 -1.26 2.13 -3.21 4.38c -1.35 1.53 -1.86 2.19 -2.4 2.97c -0.63 0.93 -1.11 1.92 -1.38 2.79c -0.15 0.54 -0.27 1.35 -0.27 1.8l 0 0.15l -0.21 0l -0.21 0l 0 -3.75l 0 -3.75l 0.21 0l 0.21 0l 0.48 -0.3c 1.83 -1.11 3.12 -2.1 4.17 -3.12c 0.78 -0.81 1.32 -1.53 1.71 -2.31c 0.45 -0.93 0.6 -1.74 0.51 -2.88c -0.12 -1.56 -0.63 -3.18 -1.47 -4.68c -0.12 -0.21 -0.15 -0.33 -0.06 -0.51c 0.06 -0.15 0.15 -0.24 0.33 -0.33z"></path><path data-name="e" d="M 465.5596991547618 60.280000000000015c 0.36 -0.03 1.2 0 1.53 0.06c 1.17 0.24 1.89 0.84 2.16 1.83c 0.06 0.18 0.06 0.3 0.06 0.66c 0 0.45 0 0.63 -0.15 1.08c -0.66 2.04 -3.06 3.93 -5.52 4.38c -0.54 0.09 -1.44 0.09 -1.83 0.03c -1.23 -0.27 -1.98 -0.87 -2.25 -1.86c -0.06 -0.18 -0.06 -0.3 -0.06 -0.66c 0 -0.45 0 -0.63 0.15 -1.08c 0.24 -0.78 0.75 -1.53 1.44 -2.22c 1.2 -1.2 2.85 -2.01 4.47 -2.22z" class="abcjs-notehead"></path><path d="M 459.47 91.46L 459.47 65.62L 460.47 65.62L 460.47 91.46z" class="abcjs-stem" data-name="stem"></path></g><g fill="currentColor" stroke="none" data-name="note" selectable="false" data-index="11"><path data-name="e" d="M 490.99234957738093 60.280000000000015c 0.36 -0.03 1.2 0 1.53 0.06c 1.17 0.24 1.89 0.84 2.16 1.83c 0.06 0.18 0.06 0.3 0.06 0.66c 0 0.45 0 0.63 -0.15 1.08c -0.66 2.04 -3.06 3.93 -5.52 4.38c -0.54 0.09 -1.44 0.09 -1.83 0.03c -1.23 -0.27 -1.98 -0.87 -2.25 -1.86c -0.06 -0.18 -0.06 -0.3 -0.06 -0.66c 0 -0.45 0 -0.63 0.15 -1.08c 0.24 -0.78 0.75 -1.53 1.44 -2.22c 1.2 -1.2 2.85 -2.01 4.47 -2.22z" class="abcjs-notehead"></path><path d="M 484.9 91.46L 484.9 65.62L 485.9 65.62L 485.9 91.46z" class="abcjs-stem" data-name="stem"></path></g><g fill="currentColor" stroke="none" data-name="note" selectable="false" data-index="12"><path data-name="flags.d8th" d="M 526.5395487321427 73.70000000000002c 0.24 -0.12 0.54 -0.06 0.69 0.15c 0.06 0.06 0.21 0.36 0.39 0.66c 0.84 1.77 1.26 3.36 1.32 5.1c 0.03 1.29 -0.21 2.37 -0.81 3.63c -0.6 1.23 -1.26 2.13 -3.21 4.38c -1.35 1.53 -1.86 2.19 -2.4 2.97c -0.63 0.93 -1.11 1.92 -1.38 2.79c -0.15 0.54 -0.27 1.35 -0.27 1.8l 0 0.15l -0.21 0l -0.21 0l 0 -3.75l 0 -3.75l 0.21 0l 0.21 0l 0.48 -0.3c 1.83 -1.11 3.12 -2.1 4.17 -3.12c 0.78 -0.81 1.32 -1.53 1.71 -2.31c 0.45 -0.93 0.6 -1.74 0.51 -2.88c -0.12 -1.56 -0.63 -3.18 -1.47 -4.68c -0.12 -0.21 -0.15 -0.33 -0.06 -0.51c 0.06 -0.15 0.15 -0.24 0.33 -0.33z"></path><path data-name="d" d="M 526.9595487321428 64.15500000000002c 0.36 -0.03 1.2 0 1.53 0.06c 1.17 0.24 1.89 0.84 2.16 1.83c 0.06 0.18 0.06 0.3 0.06 0.66c 0 0.45 0 0.63 -0.15 1.08c -0.66 2.04 -3.06 3.93 -5.52 4.38c -0.54 0.09 -1.44 0.09 -1.83 0.03c -1.23 -0.27 -1.98 -0.87 -2.25 -1.86c -0.06 -0.18 -0.06 -0.3 -0.06 -0.66c 0 -0.45 0 -0.63 0.15 -1.08c 0.24 -0.78 0.75 -1.53 1.44 -2.22c 1.2 -1.2 2.85 -2.01 4.47 -2.22z" class="abcjs-notehead"></path><path d="M 520.87 95.33L 520.87 69.5L 521.87 69.5L 521.87 95.33z" class="abcjs-stem" data-name="stem"></path></g><g fill="currentColor" stroke="none" data-name="note" selectable="false" data-index="13"><path data-name="B" d="M 552.3921991547619 71.90500000000002c 0.36 -0.03 1.2 0 1.53 0.06c 1.17 0.24 1.89 0.84 2.16 1.83c 0.06 0.18 0.06 0.3 0.06 0.66c 0 0.45 0 0.63 -0.15 1.08c -0.66 2.04 -3.06 3.93 -5.52 4.38c -0.54 0.09 -1.44 0.09 -1.83 0.03c -1.23 -0.27 -1.98 -0.87 -2.25 -1.86c -0.06 -0.18 -0.06 -0.3 -0.06 -0.66c 0 -0.45 0 -0.63 0.15 -1.08c 0.24 -0.78 0.75 -1.53 1.44 -2.22c 1.2 -1.2 2.85 -2.01 4.47 -2.22z" class="abcjs-notehead"></path><path d="M 546.3 103.08L 546.3 75.96L 547.3 75.96L 547.3 103.08z" class="abcjs-stem" data-name="stem"></path><text stroke="none" font-size="16" font-style="normal" font-family="Helvetica" font-weight="normal" text-decoration="none" class="" text-anchor="middle" x="551.21" y="38.56" data-name="chord"><tspan x="551.21">G</tspan></text></g><g fill="currentColor" stroke="none" data-name="note" selectable="false" data-index="14"><path data-name="flags.u8th" d="M 591.0593983095238 56.45500000000001l 0 -3.75l 0.21 0l 0.21 0l 0 0.18c 0 0.3 0.06 0.84 0.12 1.23c 0.24 1.53 0.9 3.12 2.13 5.16l 0.99 1.59c 0.87 1.44 1.38 2.34 1.77 3.09c 0.81 1.68 1.2 3.06 1.26 4.53c 0.03 1.53 -0.21 3.27 -0.75 5.01c -0.21 0.69 -0.51 1.5 -0.6 1.59c -0.09 0.12 -0.27 0.21 -0.42 0.21c -0.15 0 -0.42 -0.12 -0.51 -0.21c -0.15 -0.18 -0.18 -0.42 -0.09 -0.66c 0.15 -0.33 0.45 -1.2 0.57 -1.62c 0.42 -1.38 0.6 -2.58 0.6 -3.9c 0 -0.66 0 -0.81 -0.06 -1.11c -0.39 -2.07 -1.8 -4.26 -4.59 -7.14l -0.42 -0.45l -0.21 0l -0.21 0l 0 -3.75z"></path><path data-name="A" d="M 588.3593983095237 75.78000000000002c 0.36 -0.03 1.2 0 1.53 0.06c 1.17 0.24 1.89 0.84 2.16 1.83c 0.06 0.18 0.06 0.3 0.06 0.66c 0 0.45 0 0.63 -0.15 1.08c -0.66 2.04 -3.06 3.93 -5.52 4.38c -0.54 0.09 -1.44 0.09 -1.83 0.03c -1.23 -0.27 -1.98 -0.87 -2.25 -1.86c -0.06 -0.18 -0.06 -0.3 -0.06 -0.66c 0 -0.45 0 -0.63 0.15 -1.08c 0.24 -0.78 0.75 -1.53 1.44 -2.22c 1.2 -1.2 2.85 -2.01 4.47 -2.22z" class="abcjs-notehead"></path><path d="M 592.08 52.71L 592.08 78.54L 591.08 78.54L 591.08 52.71z" class="abcjs-stem" data-name="stem"></path></g><g fill="currentColor" stroke="none" data-name="note" selectable="false" data-index="15"><path data-name="G" d="M 613.7920487321428 79.65500000000002c 0.36 -0.03 1.2 0 1.53 0.06c 1.17 0.24 1.89 0.84 2.16 1.83c 0.06 0.18 0.06 0.3 0.06 0.66c 0 0.45 0 0.63 -0.15 1.08c -0.66 2.04 -3.06 3.93 -5.52 4.38c -0.54 0.09 -1.44 0.09 -1.83 0.03c -1.23 -0.27 -1.98 -0.87 -2.25 -1.86c -0.06 -0.18 -0.06 -0.3 -0.06 -0.66c 0 -0.45 0 -0.63 0.15 -1.08c 0.24 -0.78 0.75 -1.53 1.44 -2.22c 1.2 -1.2 2.85 -2.01 4.47 -2.22z" class="abcjs-notehead"></path><path d="M 617.51 48.78L 617.51 82.93L 616.91 82.93L 616.91 48.78z" class="abcjs-stem" data-name="stem"></path></g><g fill="currentColor" stroke="none" data-name="note" selectable="false" data-index="16"><path data-name="A" d="M 639.2246991547619 75.78000000000002c 0.36 -0.03 1.2 0 1.53 0.06c 1.17 0.24 1.89 0.84 2.16 1.83c 0.06 0.18 0.06 0.3 0.06 0.66c 0 0.45 0 0.63 -0.15 1.08c -0.66 2.04 -3.06 3.93 -5.52 4.38c -0.54 0.09 -1.44 0.09 -1.83 0.03c -1.23 -0.27 -1.98 -0.87 -2.25 -1.86c -0.06 -0.18 -0.06 -0.3 -0.06 -0.66c 0 -0.45 0 -0.63 0.15 -1.08c 0.24 -0.78 0.75 -1.53 1.44 -2.22c 1.2 -1.2 2.85 -2.01 4.47 -2.22z" class="abcjs-notehead"></path><path d="M 642.94 46.87L 642.94 79.06L 642.34 79.06L 642.34 46.87z" class="abcjs-stem" data-name="stem"></path></g><g fill="currentColor" stroke="none" data-name="note" selectable="false" data-index="17"><path data-name="B" d="M 664.657349577381 71.90500000000002c 0.36 -0.03 1.2 0 1.53 0.06c 1.17 0.24 1.89 0.84 2.16 1.83c 0.06 0.18 0.06 0.3 0.06 0.66c 0 0.45 0 0.63 -0.15 1.08c -0.66 2.04 -3.06 3.93 -5.52 4.38c -0.54 0.09 -1.44 0.09 -1.83 0.03c -1.23 -0.27 -1.98 -0.87 -2.25 -1.86c -0.06 -0.18 -0.06 -0.3 -0.06 -0.66c 0 -0.45 0 -0.63 0.15 -1.08c 0.24 -0.78 0.75 -1.53 1.44 -2.22c 1.2 -1.2 2.85 -2.01 4.47 -2.22z" class="abcjs-notehead"></path><path d="M 668.38 44.96L 668.38 75.18L 667.78 75.18L 667.78 44.96z" class="abcjs-stem" data-name="stem"></path></g><g fill="currentColor" stroke="none" data-name="bar"><path d="M 684 91.46L 684 60.46L 684.6 60.46L 684.6 91.46z" data-name="bar"></path></g><path d="M272.01 44.96 L323.48 44.96L323.48 48.84 L272.01 48.84z" stroke="none" fill="currentColor" class=""></path><path d="M616.91 48.83 L668.38 44.96L668.38 48.84 L616.91 52.7z" stroke="none" fill="currentColor" class=""></path></g></svg>