<svg xmlns:xlink="http://www.w3.org/1999/xlink" role="img" fill="currentColor" stroke="currentColor" aria-label="Sheet Music for &quot;Tempo Rung&quot;" width="700" height="367.1195"><style>.abcjs-dragging-in-progress text, .abcjs-dragging-in-progress tspan {-webkit-touch-callout: none; -webkit-user-select: none; -khtml-user-select: none; -moz-user-select: none; -ms-user-select: none; user-select: none;}</style><title>Sheet Music for "Tempo Rung"</title><g><text stroke="none" font-size="27" font-style="normal" font-family="Times New Roman" font-weight="normal" text-decoration="none" class="" text-anchor="middle" x="350" y="49.56" data-name="title"><tspan x="350">Tempo Rung</tspan></text><text stroke="none" font-size="19" font-style="italic" font-family="Times New Roman" font-weight="normal" text-decoration="none" class="" text-anchor="start" x="15" y="82.12" data-name="rhythm"><tspan x="15">Reel</tspan></text></g><g><g><path d="M 15 137.64 L 685 137.64 L 685 138.34 L 15 138.34 z" stroke="none" fill="currentColor" class="abcjs-top-line"></path><path d="M 15 145.39 L 685 145.39 L 685 146.09 L 15 146.09 z" stroke="none" fill="currentColor"></path><path d="M 15 153.14 L 685 153.14 L 685 153.84 L 15 153.84 z" stroke="none" fill="currentColor"></path><path d="M 15 160.89 L 685 160.89 L 685 161.59 L 15 161.59 z" stroke="none" fill="currentColor"></path><path d="M 15 168.64 L 685 168.64 L 685 169.34 L 15 169.34 z" stroke="none" fill="currentColor"></path></g><g fill="currentColor" stroke="none" data-name="staff-extra clef"><path data-name="clefs.G" d="M 29.689999999999998 123.83250000000001c 0.09 -0.09 0.24 -0.06 0.36 0c 0.12 0.09 0.57 0.6 0.96 1.11c 1.77 2.34 3.21 5.85 3.57 8.73c 0.21 1.56 0.03 3.27 -0.45 4.86c -0.69 2.31 -1.92 4.47 -4.23 7.44c -0.3 0.39 -0.57 0.72 -0.6 0.75c -0.03 0.06 0 0.15 0.18 0.78c 0.54 1.68 1.38 4.44 1.68 5.49l 0.09 0.42l 0.39 0c 1.47 0.09 2.76 0.51 3.96 1.29c 1.83 1.23 3.06 3.21 3.39 5.52c 0.09 0.45 0.12 1.29 0.06 1.74c -0.09 1.02 -0.33 1.83 -0.75 2.73c -0.84 1.71 -2.28 3.06 -4.02 3.72l -0.33 0.12l 0.03 1.26c 0 1.74 -0.06 3.63 -0.21 4.62c -0.45 3.06 -2.19 5.49 -4.47 6.21c -0.57 0.18 -0.9 0.21 -1.59 0.21c -0.69 0 -1.02 -0.03 -1.65 -0.21c -1.14 -0.27 -2.13 -0.84 -2.94 -1.65c -0.99 -0.99 -1.56 -2.16 -1.71 -3.54c -0.09 -0.81 0.06 -1.53 0.45 -2.13c 0.63 -0.99 1.83 -1.56 3 -1.53c 1.5 0.09 2.64 1.32 2.73 2.94c 0.06 1.47 -0.93 2.7 -2.37 2.97c -0.45 0.06 -0.84 0.03 -1.29 -0.09l -0.21 -0.09l 0.09 0.12c 0.39 0.54 0.78 0.93 1.32 1.26c 1.35 0.87 3.06 1.02 4.35 0.36c 1.44 -0.72 2.52 -2.28 2.97 -4.35c 0.15 -0.66 0.24 -1.5 0.3 -3.03c 0.03 -0.84 0.03 -2.94 0 -3c -0.03 0 -0.18 0 -0.36 0.03c -0.66 0.12 -0.99 0.12 -1.83 0.12c -1.05 0 -1.71 -0.06 -2.61 -0.3c -4.02 -0.99 -7.11 -4.35 -7.8 -8.46c -0.12 -0.66 -0.12 -0.99 -0.12 -1.83c 0 -0.84 0 -1.14 0.15 -1.92c 0.36 -2.28 1.41 -4.62 3.3 -7.29l 2.79 -3.6c 0.54 -0.66 0.96 -1.2 0.96 -1.23c 0 -0.03 -0.09 -0.33 -0.18 -0.69c -0.96 -3.21 -1.41 -5.28 -1.59 -7.68c -0.12 -1.38 -0.15 -3.09 -0.06 -3.96c 0.33 -2.67 1.38 -5.07 3.12 -7.08c 0.36 -0.42 0.99 -1.05 1.17 -1.14zm 2.01 4.71c -0.15 -0.3 -0.3 -0.54 -0.3 -0.54c -0.03 0 -0.18 0.09 -0.3 0.21c -2.4 1.74 -3.87 4.2 -4.26 7.11c -0.06 0.54 -0.06 1.41 -0.03 1.89c 0.09 1.29 0.48 3.12 1.08 5.22c 0.15 0.42 0.24 0.78 0.24 0.81c 0 0.03 0.84 -1.11 1.23 -1.68c 1.89 -2.73 2.88 -5.07 3.15 -7.53c 0.09 -0.57 0.12 -1.74 0.06 -2.37c -0.09 -1.23 -0.27 -1.92 -0.87 -3.12zm -2.94 20.7c -0.21 -0.72 -0.39 -1.32 -0.42 -1.32c 0 0 -1.2 1.47 -1.86 2.37c -2.79 3.63 -4.02 6.3 -4.35 9.3c -0.03 0.21 -0.03 0.69 -0.03 1.08c 0 0.69 0 0.75 0.06 1.11c 0.12 0.54 0.27 0.99 0.51 1.47c 0.69 1.38 1.83 2.55 3.42 3.42c 0.96 0.54 2.07 0.9 3.21 1.08c 0.78 0.12 2.04 0.12 2.94 -0.03c 0.51 -0.06 0.45 -0.03 0.42 -0.3c -0.24 -3.33 -0.72 -6.33 -1.62 -10.08c -0.09 -0.39 -0.18 -0.75 -0.18 -0.78c -0.03 -0.03 -0.42 0 -0.81 0.09c -0.9 0.18 -1.65 0.57 -2.22 1.14c -0.72 0.72 -1.08 1.65 -1.05 2.64c 0.06 0.96 0.48 1.83 1.23 2.58c 0.36 0.36 0.72 0.63 1.17 0.9c 0.33 0.18 0.36 0.21 0.42 0.33c 0.18 0.42 -0.18 0.9 -0.6 0.87c -0.18 -0.03 -0.84 -0.36 -1.26 -0.63c -0.78 -0.51 -1.38 -1.11 -1.86 -1.83c -1.77 -2.7 -0.99 -6.42 1.71 -8.19c 0.3 -0.21 0.81 -0.48 1.17 -0.63c 0.3 -0.09 1.02 -0.3 1.14 -0.3c 0.06 0 0.09 0 0.09 -0.03c 0.03 -0.03 -0.51 -1.92 -1.23 -4.26zm 3.78 7.41c -0.18 -0.03 -0.36 -0.06 -0.39 -0.06c -0.03 0 0 0.21 0.18 1.02c 0.75 3.18 1.26 6.3 1.5 9.09c 0.06 0.72 0 0.69 0.51 0.42c 0.78 -0.36 1.44 -0.96 1.98 -1.77c 1.08 -1.62 1.2 -3.69 0.3 -5.55c -0.81 -1.62 -2.31 -2.79 -4.08 -3.15z"></path></g><g fill="currentColor" stroke="none" data-name="staff-extra time-signature"><path data-name="4" d="M 57.691 138.5525c 0.27 -0.09 0.42 -0.12 0.54 -0.03c 0.09 0.06 0.15 0.21 0.15 0.3c -0.03 0.06 -1.92 2.31 -4.23 5.04c -2.31 2.73 -4.23 4.98 -4.26 5.01c -0.03 0.06 0.12 0.06 2.55 0.06l 2.61 0l 0 -2.37c 0 -2.19 0.03 -2.37 0.06 -2.46c 0.03 -0.06 0.21 -0.18 0.57 -0.42c 1.08 -0.72 1.38 -1.08 1.86 -2.16c 0.12 -0.3 0.24 -0.54 0.27 -0.57c 0.12 -0.12 0.39 -0.06 0.45 0.12c 0.06 0.09 0.06 0.57 0.06 3.96l 0 3.9l 1.08 0c 1.05 0 1.11 0 1.2 0.06c 0.24 0.15 0.24 0.54 0 0.69c -0.09 0.06 -0.15 0.06 -1.2 0.06l -1.08 0l 0 0.33c 0 0.57 0.09 1.11 0.3 1.53c 0.36 0.75 0.93 1.17 1.68 1.26c 0.3 0.03 0.39 0.09 0.39 0.3c 0 0.15 -0.03 0.18 -0.09 0.24c -0.06 0.06 -0.09 0.06 -0.48 0.06c -0.42 0 -0.69 -0.03 -2.1 -0.24c -0.9 -0.15 -1.77 -0.15 -2.67 0c -1.41 0.21 -1.68 0.24 -2.1 0.24c -0.39 0 -0.42 0 -0.48 -0.06c -0.06 -0.06 -0.06 -0.09 -0.06 -0.24c 0 -0.21 0.06 -0.27 0.36 -0.3c 0.75 -0.09 1.32 -0.51 1.68 -1.26c 0.21 -0.42 0.3 -0.96 0.3 -1.53l 0 -0.33l -2.7 0c -2.91 0 -2.85 0 -3.09 -0.15c -0.18 -0.12 -0.3 -0.39 -0.27 -0.54c 0.03 -0.06 0.18 -0.24 0.33 -0.45c 0.75 -0.9 1.59 -2.07 2.13 -3.03c 0.33 -0.54 0.84 -1.62 1.05 -2.16c 0.57 -1.41 0.84 -2.64 0.9 -4.05c 0.03 -0.63 0.06 -0.72 0.24 -0.81l 0.12 -0.06l 0.45 0.12c 0.66 0.18 1.02 0.24 1.47 0.27c 0.6 0.03 1.23 -0.09 2.01 -0.33z"></path><path data-name="4" d="M 57.691 154.0525c 0.27 -0.09 0.42 -0.12 0.54 -0.03c 0.09 0.06 0.15 0.21 0.15 0.3c -0.03 0.06 -1.92 2.31 -4.23 5.04c -2.31 2.73 -4.23 4.98 -4.26 5.01c -0.03 0.06 0.12 0.06 2.55 0.06l 2.61 0l 0 -2.37c 0 -2.19 0.03 -2.37 0.06 -2.46c 0.03 -0.06 0.21 -0.18 0.57 -0.42c 1.08 -0.72 1.38 -1.08 1.86 -2.16c 0.12 -0.3 0.24 -0.54 0.27 -0.57c 0.12 -0.12 0.39 -0.06 0.45 0.12c 0.06 0.09 0.06 0.57 0.06 3.96l 0 3.9l 1.08 0c 1.05 0 1.11 0 1.2 0.06c 0.24 0.15 0.24 0.54 0 0.69c -0.09 0.06 -0.15 0.06 -1.2 0.06l -1.08 0l 0 0.33c 0 0.57 0.09 1.11 0.3 1.53c 0.36 0.75 0.93 1.17 1.68 1.26c 0.3 0.03 0.39 0.09 0.39 0.3c 0 0.15 -0.03 0.18 -0.09 0.24c -0.06 0.06 -0.09 0.06 -0.48 0.06c -0.42 0 -0.69 -0.03 -2.1 -0.24c -0.9 -0.15 -1.77 -0.15 -2.67 0c -1.41 0.21 -1.68 0.24 -2.1 0.24c -0.39 0 -0.42 0 -0.48 -0.06c -0.06 -0.06 -0.06 -0.09 -0.06 -0.24c 0 -0.21 0.06 -0.27 0.36 -0.3c 0.75 -0.09 1.32 -0.51 1.68 -1.26c 0.21 -0.42 0.3 -0.96 0.3 -1.53l 0 -0.33l -2.7 0c -2.91 0 -2.85 0 -3.09 -0.15c -0.18 -0.12 -0.3 -0.39 -0.27 -0.54c 0.03 -0.06 0.18 -0.24 0.33 -0.45c 0.75 -0.9 1.59 -2.07 2.13 -3.03c 0.33 -0.54 0.84 -1.62 1.05 -2.16c 0.57 -1.41 0.84 -2.64 0.9 -4.05c 0.03 -0.63 0.06 -0.72 0.24 -0.81l 0.12 -0.06l 0.45 0.12c 0.66 0.18 1.02 0.24 1.47 0.27c 0.6 0.03 1.23 -0.09 2.01 -0.33z"></path></g><g fill="currentColor" stroke="none" data-name="tempo"><path data-name="noteheads.quarter" d="M 76.936 109.00500000000001c 0.36 -0.03 1.2 0 1.53 0.06c 1.17 0.24 1.89 0.84 2.16 1.83c 0.06 0.18 0.06 0.3 0.06 0.66c 0 0.45 0 0.63 -0.15 1.08c -0.66 2.04 -3.06 3.93 -5.52 4.38c -0.54 0.09 -1.44 0.09 -1.83 0.03c -1.23 -0.27 -1.98 -0.87 -2.25 -1.86c -0.06 -0.18 -0.06 -0.3 -0.06 -0.66c 0 -0.45 0 -0.63 0.15 -1.08c 0.24 -0.78 0.75 -1.53 1.44 -2.22c 1.2 -1.2 2.85 -2.01 4.47 -2.22z" style="transform:scale(0.75,0.75);transform-origin:70.846px 113.055px;"></path><path d="M 78.2 98.52L 78.2 112.09L 77.6 112.09L 77.6 98.52z" class="abcjs-stem" data-name="stem"></path><text stroke="none" font-size="20" font-style="normal" font-family="Times New Roman" font-weight="bold" text-decoration="none" text-anchor="start" x="83.2" y="115.68" data-name="beats"><tspan x="83.2">= 120</tspan></text></g><g fill="currentColor" stroke="none" data-name="note" selectable="false" data-index="0"><path data-name="flags.u8th" d="M 79.63600000000001 133.9925l 0 -3.75l 0.21 0l 0.21 0l 0 0.18c 0 0.3 0.06 0.84 0.12 1.23c 0.24 1.53 0.9 3.12 2.13 5.16l 0.99 1.59c 0.87 1.44 1.38 2.34 1.77 3.09c 0.81 1.68 1.2 3.06 1.26 4.53c 0.03 1.53 -0.21 3.27 -0.75 5.01c -0.21 0.69 -0.51 1.5 -0.6 1.59c -0.09 0.12 -0.27 0.21 -0.42 0.21c -0.15 0 -0.42 -0.12 -0.51 -0.21c -0.15 -0.18 -0.18 -0.42 -0.09 -0.66c 0.15 -0.33 0.45 -1.2 0.57 -1.62c 0.42 -1.38 0.6 -2.58 0.6 -3.9c 0 -0.66 0 -0.81 -0.06 -1.11c -0.39 -2.07 -1.8 -4.26 -4.59 -7.14l -0.42 -0.45l -0.21 0l -0.21 0l 0 -3.75z"></path><path data-name="A" d="M 76.936 153.3175c 0.36 -0.03 1.2 0 1.53 0.06c 1.17 0.24 1.89 0.84 2.16 1.83c 0.06 0.18 0.06 0.3 0.06 0.66c 0 0.45 0 0.63 -0.15 1.08c -0.66 2.04 -3.06 3.93 -5.52 4.38c -0.54 0.09 -1.44 0.09 -1.83 0.03c -1.23 -0.27 -1.98 -0.87 -2.25 -1.86c -0.06 -0.18 -0.06 -0.3 -0.06 -0.66c 0 -0.45 0 -0.63 0.15 -1.08c 0.24 -0.78 0.75 -1.53 1.44 -2.22c 1.2 -1.2 2.85 -2.01 4.47 -2.22z" class="abcjs-notehead"></path><path d="M 80.66 130.24L 80.66 156.08L 79.66 156.08L 79.66 130.24z" class="abcjs-stem" data-name="stem"></path><path data-name="scripts.prall" d="M 71.37100000000001 120.86500000000001c 0.06 -0.03 0.18 -0.06 0.24 -0.06c 0.3 0 0.27 -0.03 1.89 1.95l 1.53 1.83c 0.03 0 0.57 -0.84 1.23 -1.83c 1.14 -1.68 1.23 -1.83 1.35 -1.89c 0.06 -0.03 0.18 -0.06 0.24 -0.06c 0.3 0 0.27 -0.03 1.89 1.95l 1.53 1.83l 0.48 -0.69c 0.51 -0.78 0.54 -0.84 0.69 -0.9c 0.42 -0.18 0.87 0.15 0.81 0.6c -0.03 0.12 -0.3 0.51 -1.5 2.37c -1.38 2.07 -1.5 2.22 -1.62 2.28c -0.06 0.03 -0.18 0.06 -0.24 0.06c -0.3 0 -0.27 0.03 -1.89 -1.95l -1.53 -1.83c -0.03 0 -0.57 0.84 -1.23 1.83c -1.14 1.68 -1.23 1.83 -1.35 1.89c -0.06 0.03 -0.18 0.06 -0.24 0.06c -0.3 0 -0.27 0.03 -1.89 -1.95l -1.53 -1.83l -0.48 0.69c -0.51 0.78 -0.54 0.84 -0.69 0.9c -0.42 0.18 -0.87 -0.15 -0.81 -0.6c 0.03 -0.12 0.3 -0.51 1.5 -2.37c 1.38 -2.07 1.5 -2.22 1.62 -2.28z"></path></g><g><path d="M 15 216.64 L 685 216.64 L 685 217.34 L 15 217.34 z" stroke="none" fill="currentColor" class="abcjs-top-line"></path><path d="M 15 224.39 L 685 224.39 L 685 225.09 L 15 225.09 z" stroke="none" fill="currentColor"></path><path d="M 15 232.14 L 685 232.14 L 685 232.84 L 15 232.84 z" stroke="none" fill="currentColor"></path><path d="M 15 239.89 L 685 239.89 L 685 240.59 L 15 240.59 z" stroke="none" fill="currentColor"></path><path d="M 15 247.64 L 685 247.64 L 685 248.34 L 15 248.34 z" stroke="none" fill="currentColor"></path></g><g fill="currentColor" stroke="none" data-name="staff-extra clef"><path data-name="clefs.G" d="M 29.689999999999998 202.8325c 0.09 -0.09 0.24 -0.06 0.36 0c 0.12 0.09 0.57 0.6 0.96 1.11c 1.77 2.34 3.21 5.85 3.57 8.73c 0.21 1.56 0.03 3.27 -0.45 4.86c -0.69 2.31 -1.92 4.47 -4.23 7.44c -0.3 0.39 -0.57 0.72 -0.6 0.75c -0.03 0.06 0 0.15 0.18 0.78c 0.54 1.68 1.38 4.44 1.68 5.49l 0.09 0.42l 0.39 0c 1.47 0.09 2.76 0.51 3.96 1.29c 1.83 1.23 3.06 3.21 3.39 5.52c 0.09 0.45 0.12 1.29 0.06 1.74c -0.09 1.02 -0.33 1.83 -0.75 2.73c -0.84 1.71 -2.28 3.06 -4.02 3.72l -0.33 0.12l 0.03 1.26c 0 1.74 -0.06 3.63 -0.21 4.62c -0.45 3.06 -2.19 5.49 -4.47 6.21c -0.57 0.18 -0.9 0.21 -1.59 0.21c -0.69 0 -1.02 -0.03 -1.65 -0.21c -1.14 -0.27 -2.13 -0.84 -2.94 -1.65c -0.99 -0.99 -1.56 -2.16 -1.71 -3.54c -0.09 -0.81 0.06 -1.53 0.45 -2.13c 0.63 -0.99 1.83 -1.56 3 -1.53c 1.5 0.09 2.64 1.32 2.73 2.94c 0.06 1.47 -0.93 2.7 -2.37 2.97c -0.45 0.06 -0.84 0.03 -1.29 -0.09l -0.21 -0.09l 0.09 0.12c 0.39 0.54 0.78 0.93 1.32 1.26c 1.35 0.87 3.06 1.02 4.35 0.36c 1.44 -0.72 2.52 -2.28 2.97 -4.35c 0.15 -0.66 0.24 -1.5 0.3 -3.03c 0.03 -0.84 0.03 -2.94 0 -3c -0.03 0 -0.18 0 -0.36 0.03c -0.66 0.12 -0.99 0.12 -1.83 0.12c -1.05 0 -1.71 -0.06 -2.61 -0.3c -4.02 -0.99 -7.11 -4.35 -7.8 -8.46c -0.12 -0.66 -0.12 -0.99 -0.12 -1.83c 0 -0.84 0 -1.14 0.15 -1.92c 0.36 -2.28 1.41 -4.62 3.3 -7.29l 2.79 -3.6c 0.54 -0.66 0.96 -1.2 0.96 -1.23c 0 -0.03 -0.09 -0.33 -0.18 -0.69c -0.96 -3.21 -1.41 -5.28 -1.59 -7.68c -0.12 -1.38 -0.15 -3.09 -0.06 -3.96c 0.33 -2.67 1.38 -5.07 3.12 -7.08c 0.36 -0.42 0.99 -1.05 1.17 -1.14zm 2.01 4.71c -0.15 -0.3 -0.3 -0.54 -0.3 -0.54c -0.03 0 -0.18 0.09 -0.3 0.21c -2.4 1.74 -3.87 4.2 -4.26 7.11c -0.06 0.54 -0.06 1.41 -0.03 1.89c 0.09 1.29 0.48 3.12 1.08 5.22c 0.15 0.42 0.24 0.78 0.24 0.81c 0 0.03 0.84 -1.11 1.23 -1.68c 1.89 -2.73 2.88 -5.07 3.15 -7.53c 0.09 -0.57 0.12 -1.74 0.06 -2.37c -0.09 -1.23 -0.27 -1.92 -0.87 -3.12zm -2.94 20.7c -0.21 -0.72 -0.39 -1.32 -0.42 -1.32c 0 0 -1.2 1.47 -1.86 2.37c -2.79 3.63 -4.02 6.3 -4.35 9.3c -0.03 0.21 -0.03 0.69 -0.03 1.08c 0 0.69 0 0.75 0.06 1.11c 0.12 0.54 0.27 0.99 0.51 1.47c 0.69 1.38 1.83 2.55 3.42 3.42c 0.96 0.54 2.07 0.9 3.21 1.08c 0.78 0.12 2.04 0.12 2.94 -0.03c 0.51 -0.06 0.45 -0.03 0.42 -0.3c -0.24 -3.33 -0.72 -6.33 -1.62 -10.08c -0.09 -0.39 -0.18 -0.75 -0.18 -0.78c -0.03 -0.03 -0.42 0 -0.81 0.09c -0.9 0.18 -1.65 0.57 -2.22 1.14c -0.72 0.72 -1.08 1.65 -1.05 2.64c 0.06 0.96 0.48 1.83 1.23 2.58c 0.36 0.36 0.72 0.63 1.17 0.9c 0.33 0.18 0.36 0.21 0.42 0.33c 0.18 0.42 -0.18 0.9 -0.6 0.87c -0.18 -0.03 -0.84 -0.36 -1.26 -0.63c -0.78 -0.51 -1.38 -1.11 -1.86 -1.83c -1.77 -2.7 -0.99 -6.42 1.71 -8.19c 0.3 -0.21 0.81 -0.48 1.17 -0.63c 0.3 -0.09 1.02 -0.3 1.14 -0.3c 0.06 0 0.09 0 0.09 -0.03c 0.03 -0.03 -0.51 -1.92 -1.23 -4.26zm 3.78 7.41c -0.18 -0.03 -0.36 -0.06 -0.39 -0.06c -0.03 0 0 0.21 0.18 1.02c 0.75 3.18 1.26 6.3 1.5 9.09c 0.06 0.72 0 0.69 0.51 0.42c 0.78 -0.36 1.44 -0.96 1.98 -1.77c 1.08 -1.62 1.2 -3.69 0.3 -5.55c -0.81 -1.62 -2.31 -2.79 -4.08 -3.15z"></path></g><g fill="currentColor" stroke="none" data-name="staff-extra time-signature"><path data-name="4" d="M 57.691 217.5525c 0.27 -0.09 0.42 -0.12 0.54 -0.03c 0.09 0.06 0.15 0.21 0.15 0.3c -0.03 0.06 -1.92 2.31 -4.23 5.04c -2.31 2.73 -4.23 4.98 -4.26 5.01c -0.03 0.06 0.12 0.06 2.55 0.06l 2.61 0l 0 -2.37c 0 -2.19 0.03 -2.37 0.06 -2.46c 0.03 -0.06 0.21 -0.18 0.57 -0.42c 1.08 -0.72 1.38 -1.08 1.86 -2.16c 0.12 -0.3 0.24 -0.54 0.27 -0.57c 0.12 -0.12 0.39 -0.06 0.45 0.12c 0.06 0.09 0.06 0.57 0.06 3.96l 0 3.9l 1.08 0c 1.05 0 1.11 0 1.2 0.06c 0.24 0.15 0.24 0.54 0 0.69c -0.09 0.06 -0.15 0.06 -1.2 0.06l -1.08 0l 0 0.33c 0 0.57 0.09 1.11 0.3 1.53c 0.36 0.75 0.93 1.17 1.68 1.26c 0.3 0.03 0.39 0.09 0.39 0.3c 0 0.15 -0.03 0.18 -0.09 0.24c -0.06 0.06 -0.09 0.06 -0.48 0.06c -0.42 0 -0.69 -0.03 -2.1 -0.24c -0.9 -0.15 -1.77 -0.15 -2.67 0c -1.41 0.21 -1.68 0.24 -2.1 0.24c -0.39 0 -0.42 0 -0.48 -0.06c -0.06 -0.06 -0.06 -0.09 -0.06 -0.24c 0 -0.21 0.06 -0.27 0.36 -0.3c 0.75 -0.09 1.32 -0.51 1.68 -1.26c 0.21 -0.42 0.3 -0.96 0.3 -1.53l 0 -0.33l -2.7 0c -2.91 0 -2.85 0 -3.09 -0.15c -0.18 -0.12 -0.3 -0.39 -0.27 -0.54c 0.03 -0.06 0.18 -0.24 0.33 -0.45c 0.75 -0.9 1.59 -2.07 2.13 -3.03c 0.33 -0.54 0.84 -1.62 1.05 -2.16c 0.57 -1.41 0.84 -2.64 0.9 -4.05c 0.03 -0.63 0.06 -0.72 0.24 -0.81l 0.12 -0.06l 0.45 0.12c 0.66 0.18 1.02 0.24 1.47 0.27c 0.6 0.03 1.23 -0.09 2.01 -0.33z"></path><path data-name="4" d="M 57.691 233.0525c 0.27 -0.09 0.42 -0.12 0.54 -0.03c 0.09 0.06 0.15 0.21 0.15 0.3c -0.03 0.06 -1.92 2.31 -4.23 5.04c -2.31 2.73 -4.23 4.98 -4.26 5.01c -0.03 0.06 0.12 0.06 2.55 0.06l 2.61 0l 0 -2.37c 0 -2.19 0.03 -2.37 0.06 -2.46c 0.03 -0.06 0.21 -0.18 0.57 -0.42c 1.08 -0.72 1.38 -1.08 1.86 -2.16c 0.12 -0.3 0.24 -0.54 0.27 -0.57c 0.12 -0.12 0.39 -0.06 0.45 0.12c 0.06 0.09 0.06 0.57 0.06 3.96l 0 3.9l 1.08 0c 1.05 0 1.11 0 1.2 0.06c 0.24 0.15 0.24 0.54 0 0.69c -0.09 0.06 -0.15 0.06 -1.2 0.06l -1.08 0l 0 0.33c 0 0.57 0.09 1.11 0.3 1.53c 0.36 0.75 0.93 1.17 1.68 1.26c 0.3 0.03 0.39 0.09 0.39 0.3c 0 0.15 -0.03 0.18 -0.09 0.24c -0.06 0.06 -0.09 0.06 -0.48 0.06c -0.42 0 -0.69 -0.03 -2.1 -0.24c -0.9 -0.15 -1.77 -0.15 -2.67 0c -1.41 0.21 -1.68 0.24 -2.1 0.24c -0.39 0 -0.42 0 -0.48 -0.06c -0.06 -0.06 -0.06 -0.09 -0.06 -0.24c 0 -0.21 0.06 -0.27 0.36 -0.3c 0.75 -0.09 1.32 -0.51 1.68 -1.26c 0.21 -0.42 0.3 -0.96 0.3 -1.53l 0 -0.33l -2.7 0c -2.91 0 -2.85 0 -3.09 -0.15c -0.18 -0.12 -0.3 -0.39 -0.27 -0.54c 0.03 -0.06 0.18 -0.24 0.33 -0.45c 0.75 -0.9 1.59 -2.07 2.13 -3.03c 0.33 -0.54 0.84 -1.62 1.05 -2.16c 0.57 -1.41 0.84 -2.64 0.9 -4.05c 0.03 -0.63 0.06 -0.72 0.24 -0.81l 0.12 -0.06l 0.45 0.12c 0.66 0.18 1.02 0.24 1.47 0.27c 0.6 0.03 1.23 -0.09 2.01 -0.33z"></path></g><g fill="currentColor" stroke="none" data-name="note" selectable="false" data-index="1"><path data-name="C," d="M 78.286 278.8175c 0.06 -0.03 0.27 -0.03 0.48 -0.03c 1.05 0 1.71 0.24 2.1 0.81c 0.42 0.6 0.45 1.35 0.18 2.4c -0.42 1.59 -1.14 2.73 -2.16 3.39c -1.41 0.93 -3.18 1.44 -5.4 1.53c -1.17 0.03 -1.89 -0.21 -2.28 -0.81c -0.42 -0.6 -0.45 -1.35 -0.18 -2.4c 0.42 -1.59 1.14 -2.73 2.16 -3.39c 0.63 -0.42 1.23 -0.72 1.98 -0.96c 0.9 -0.3 1.65 -0.42 3.12 -0.54zm 1.29 0.87c -0.27 -0.09 -0.63 -0.12 -0.9 -0.03c -0.72 0.24 -1.53 0.69 -3.27 1.8c -2.34 1.5 -3.3 2.25 -3.57 2.79c -0.36 0.72 -0.06 1.5 0.66 1.77c 0.24 0.12 0.69 0.09 0.99 0c 0.84 -0.3 1.92 -0.93 4.14 -2.37c 1.62 -1.08 2.37 -1.71 2.61 -2.19c 0.36 -0.72 0.06 -1.5 -0.66 -1.77z" class="abcjs-notehead"></path><path d="M 81.22 232.49L 81.22 281.58L 80.22 281.58L 80.22 232.49z" class="abcjs-stem" data-name="stem"></path><path d="M 68.85 278.64 L 83.22 278.64 L 83.22 279.34 L 68.85 279.34 z" stroke="none" fill="currentColor" data-name="ledger" class="abcjs-ledger"></path><path d="M 68.85 270.89 L 83.22 270.89 L 83.22 271.59 L 68.85 271.59 z" stroke="none" fill="currentColor" data-name="ledger" class="abcjs-ledger"></path><path d="M 68.85 263.14 L 83.22 263.14 L 83.22 263.84 L 68.85 263.84 z" stroke="none" fill="currentColor" data-name="ledger" class="abcjs-ledger"></path><path d="M 68.85 255.39 L 83.22 255.39 L 83.22 256.09 L 68.85 256.09 z" stroke="none" fill="currentColor" data-name="ledger" class="abcjs-ledger"></path></g><g fill="currentColor" stroke="none" data-name="bar"><path d="M 684 247.99L 684 168.99L 684.6 168.99L 684.6 247.99z" data-name="bar"></path></g><path d="M 15 247.99L 15 137.99L 15.6 137.99L 15.6 247.99z" stroke="none" fill="currentColor"></path></g><g><g><path d="M 15 308.97 L 170.05 308.97 L 170.05 309.67 L 15 309.67 z" stroke="none" fill="currentColor" class="abcjs-top-line"></path><path d="M 15 316.72 L 170.05 316.72 L 170.05 317.42 L 15 317.42 z" stroke="none" fill="currentColor"></path><path d="M 15 324.47 L 170.05 324.47 L 170.05 325.17 L 15 325.17 z" stroke="none" fill="currentColor"></path><path d="M 15 332.22 L 170.05 332.22 L 170.05 332.92 L 15 332.92 z" stroke="none" fill="currentColor"></path><path d="M 15 339.97 L 170.05 339.97 L 170.05 340.67 L 15 340.67 z" stroke="none" fill="currentColor"></path></g><g fill="currentColor" stroke="none" data-name="staff-extra clef"><path data-name="clefs.G" d="M 29.689999999999998 295.1625c 0.09 -0.09 0.24 -0.06 0.36 0c 0.12 0.09 0.57 0.6 0.96 1.11c 1.77 2.34 3.21 5.85 3.57 8.73c 0.21 1.56 0.03 3.27 -0.45 4.86c -0.69 2.31 -1.92 4.47 -4.23 7.44c -0.3 0.39 -0.57 0.72 -0.6 0.75c -0.03 0.06 0 0.15 0.18 0.78c 0.54 1.68 1.38 4.44 1.68 5.49l 0.09 0.42l 0.39 0c 1.47 0.09 2.76 0.51 3.96 1.29c 1.83 1.23 3.06 3.21 3.39 5.52c 0.09 0.45 0.12 1.29 0.06 1.74c -0.09 1.02 -0.33 1.83 -0.75 2.73c -0.84 1.71 -2.28 3.06 -4.02 3.72l -0.33 0.12l 0.03 1.26c 0 1.74 -0.06 3.63 -0.21 4.62c -0.45 3.06 -2.19 5.49 -4.47 6.21c -0.57 0.18 -0.9 0.21 -1.59 0.21c -0.69 0 -1.02 -0.03 -1.65 -0.21c -1.14 -0.27 -2.13 -0.84 -2.94 -1.65c -0.99 -0.99 -1.56 -2.16 -1.71 -3.54c -0.09 -0.81 0.06 -1.53 0.45 -2.13c 0.63 -0.99 1.83 -1.56 3 -1.53c 1.5 0.09 2.64 1.32 2.73 2.94c 0.06 1.47 -0.93 2.7 -2.37 2.97c -0.45 0.06 -0.84 0.03 -1.29 -0.09l -0.21 -0.09l 0.09 0.12c 0.39 0.54 0.78 0.93 1.32 1.26c 1.35 0.87 3.06 1.02 4.35 0.36c 1.44 -0.72 2.52 -2.28 2.97 -4.35c 0.15 -0.66 0.24 -1.5 0.3 -3.03c 0.03 -0.84 0.03 -2.94 0 -3c -0.03 0 -0.18 0 -0.36 0.03c -0.66 0.12 -0.99 0.12 -1.83 0.12c -1.05 0 -1.71 -0.06 -2.61 -0.3c -4.02 -0.99 -7.11 -4.35 -7.8 -8.46c -0.12 -0.66 -0.12 -0.99 -0.12 -1.83c 0 -0.84 0 -1.14 0.15 -1.92c 0.36 -2.28 1.41 -4.62 3.3 -7.29l 2.79 -3.6c 0.54 -0.66 0.96 -1.2 0.96 -1.23c 0 -0.03 -0.09 -0.33 -0.18 -0.69c -0.96 -3.21 -1.41 -5.28 -1.59 -7.68c -0.12 -1.38 -0.15 -3.09 -0.06 -3.96c 0.33 -2.67 1.38 -5.07 3.12 -7.08c 0.36 -0.42 0.99 -1.05 1.17 -1.14zm 2.01 4.71c -0.15 -0.3 -0.3 -0.54 -0.3 -0.54c -0.03 0 -0.18 0.09 -0.3 0.21c -2.4 1.74 -3.87 4.2 -4.26 7.11c -0.06 0.54 -0.06 1.41 -0.03 1.89c 0.09 1.29 0.48 3.12 1.08 5.22c 0.15 0.42 0.24 0.78 0.24 0.81c 0 0.03 0.84 -1.11 1.23 -1.68c 1.89 -2.73 2.88 -5.07 3.15 -7.53c 0.09 -0.57 0.12 -1.74 0.06 -2.37c -0.09 -1.23 -0.27 -1.92 -0.87 -3.12zm -2.94 20.7c -0.21 -0.72 -0.39 -1.32 -0.42 -1.32c 0 0 -1.2 1.47 -1.86 2.37c -2.79 3.63 -4.02 6.3 -4.35 9.3c -0.03 0.21 -0.03 0.69 -0.03 1.08c 0 0.69 0 0.75 0.06 1.11c 0.12 0.54 0.27 0.99 0.51 1.47c 0.69 1.38 1.83 2.55 3.42 3.42c 0.96 0.54 2.07 0.9 3.21 1.08c 0.78 0.12 2.04 0.12 2.94 -0.03c 0.51 -0.06 0.45 -0.03 0.42 -0.3c -0.24 -3.33 -0.72 -6.33 -1.62 -10.08c -0.09 -0.39 -0.18 -0.75 -0.18 -0.78c -0.03 -0.03 -0.42 0 -0.81 0.09c -0.9 0.18 -1.65 0.57 -2.22 1.14c -0.72 0.72 -1.08 1.65 -1.05 2.64c 0.06 0.96 0.48 1.83 1.23 2.58c 0.36 0.36 0.72 0.63 1.17 0.9c 0.33 0.18 0.36 0.21 0.42 0.33c 0.18 0.42 -0.18 0.9 -0.6 0.87c -0.18 -0.03 -0.84 -0.36 -1.26 -0.63c -0.78 -0.51 -1.38 -1.11 -1.86 -1.83c -1.77 -2.7 -0.99 -6.42 1.71 -8.19c 0.3 -0.21 0.81 -0.48 1.17 -0.63c 0.3 -0.09 1.02 -0.3 1.14 -0.3c 0.06 0 0.09 0 0.09 -0.03c 0.03 -0.03 -0.51 -1.92 -1.23 -4.26zm 3.78 7.41c -0.18 -0.03 -0.36 -0.06 -0.39 -0.06c -0.03 0 0 0.21 0.18 1.02c 0.75 3.18 1.26 6.3 1.5 9.09c 0.06 0.72 0 0.69 0.51 0.42c 0.78 -0.36 1.44 -0.96 1.98 -1.77c 1.08 -1.62 1.2 -3.69 0.3 -5.55c -0.81 -1.62 -2.31 -2.79 -4.08 -3.15z"></path></g><g fill="currentColor" stroke="none" data-name="note" selectable="false" data-index="2"><path data-name="C" d="M 55.141000000000005 344.02250000000004c 0.36 -0.03 1.2 0 1.53 0.06c 1.17 0.24 1.89 0.84 2.16 1.83c 0.06 0.18 0.06 0.3 0.06 0.66c 0 0.45 0 0.63 -0.15 1.08c -0.66 2.04 -3.06 3.93 -5.52 4.38c -0.54 0.09 -1.44 0.09 -1.83 0.03c -1.23 -0.27 -1.98 -0.87 -2.25 -1.86c -0.06 -0.18 -0.06 -0.3 -0.06 -0.66c 0 -0.45 0 -0.63 0.15 -1.08c 0.24 -0.78 0.75 -1.53 1.44 -2.22c 1.2 -1.2 2.85 -2.01 4.47 -2.22z" class="abcjs-notehead"></path><path d="M 47.05 347.72 L 60.86 347.72 L 60.86 348.42 L 47.05 348.42 z" stroke="none" fill="currentColor" data-name="ledger" class="abcjs-ledger"></path><path d="M 58.86 309.27L 58.86 347.3L 58.26 347.3L 58.26 309.27z" class="abcjs-stem" data-name="stem"></path></g><g fill="currentColor" stroke="none" data-name="note" selectable="false" data-index="3"><path data-name="D" d="M 85.141 340.14750000000004c 0.36 -0.03 1.2 0 1.53 0.06c 1.17 0.24 1.89 0.84 2.16 1.83c 0.06 0.18 0.06 0.3 0.06 0.66c 0 0.45 0 0.63 -0.15 1.08c -0.66 2.04 -3.06 3.93 -5.52 4.38c -0.54 0.09 -1.44 0.09 -1.83 0.03c -1.23 -0.27 -1.98 -0.87 -2.25 -1.86c -0.06 -0.18 -0.06 -0.3 -0.06 -0.66c 0 -0.45 0 -0.63 0.15 -1.08c 0.24 -0.78 0.75 -1.53 1.44 -2.22c 1.2 -1.2 2.85 -2.01 4.47 -2.22z" class="abcjs-notehead"></path><path d="M 88.86 306.7L 88.86 343.42L 88.26 343.42L 88.26 306.7z" class="abcjs-stem" data-name="stem"></path></g><g fill="currentColor" stroke="none" data-name="note" selectable="false" data-index="4"><path data-name="E" d="M 115.141 336.27250000000004c 0.36 -0.03 1.2 0 1.53 0.06c 1.17 0.24 1.89 0.84 2.16 1.83c 0.06 0.18 0.06 0.3 0.06 0.66c 0 0.45 0 0.63 -0.15 1.08c -0.66 2.04 -3.06 3.93 -5.52 4.38c -0.54 0.09 -1.44 0.09 -1.83 0.03c -1.23 -0.27 -1.98 -0.87 -2.25 -1.86c -0.06 -0.18 -0.06 -0.3 -0.06 -0.66c 0 -0.45 0 -0.63 0.15 -1.08c 0.24 -0.78 0.75 -1.53 1.44 -2.22c 1.2 -1.2 2.85 -2.01 4.47 -2.22z" class="abcjs-notehead"></path><path d="M 118.86 304.14L 118.86 339.55L 118.26 339.55L 118.26 304.14z" class="abcjs-stem" data-name="stem"></path></g><g fill="currentColor" stroke="none" data-name="note" selectable="false" data-index="5"><path data-name="F" d="M 145.141 332.39750000000004c 0.36 -0.03 1.2 0 1.53 0.06c 1.17 0.24 1.89 0.84 2.16 1.83c 0.06 0.18 0.06 0.3 0.06 0.66c 0 0.45 0 0.63 -0.15 1.08c -0.66 2.04 -3.06 3.93 -5.52 4.38c -0.54 0.09 -1.44 0.09 -1.83 0.03c -1.23 -0.27 -1.98 -0.87 -2.25 -1.86c -0.06 -0.18 -0.06 -0.3 -0.06 -0.66c 0 -0.45 0 -0.63 0.15 -1.08c 0.24 -0.78 0.75 -1.53 1.44 -2.22c 1.2 -1.2 2.85 -2.01 4.47 -2.22z" class="abcjs-notehead"></path><path d="M 148.86 301.57L 148.86 335.67L 148.26 335.67L 148.26 301.57z" class="abcjs-stem" data-name="stem"></path></g><g fill="currentColor" stroke="none" data-name="bar"><path d="M 169.05 340.32L 169.05 309.32L 169.65 309.32L 169.65 340.32z" data-name="bar"></path></g><path d="M58.26 309.32 L148.86 301.57L148.86 305.44 L58.26 313.19z" stroke="none" fill="currentColor" class=""></path></g></svg>