<svg xmlns:xlink="http://www.w3.org/1999/xlink" role="img" fill="currentColor" stroke="currentColor" aria-label="Sheet Music for &quot;Key Clef Letter F&quot;" width="700" height="163.542"><style>.abcjs-dragging-in-progress text, .abcjs-dragging-in-progress tspan {-webkit-touch-callout: none; -webkit-user-select: none; -khtml-user-select: none; -moz-user-select: none; -ms-user-select: none; user-select: none;}</style><title>Sheet Music for "Key Clef Letter F"</title><g><text stroke="none" font-size="27" font-style="normal" font-family="Times New Roman" font-weight="normal" text-decoration="none" class="" text-anchor="middle" x="350" y="49.56" data-name="title"><tspan x="350">Key Clef Letter F</tspan></text></g><g><g><path d="M 15 117.19 L 314.58 117.19 L 314.58 117.89 L 15 117.89 z" stroke="none" fill="currentColor" class="abcjs-top-line"></path><path d="M 15 124.94 L 314.58 124.94 L 314.58 125.64 L 15 125.64 z" stroke="none" fill="currentColor"></path><path d="M 15 132.69 L 314.58 132.69 L 314.58 133.39 L 15 133.39 z" stroke="none" fill="currentColor"></path><path d="M 15 140.44 L 314.58 140.44 L 314.58 141.14 L 15 141.14 z" stroke="none" fill="currentColor"></path><path d="M 15 148.19 L 314.58 148.19 L 314.58 148.89 L 15 148.89 z" stroke="none" fill="currentColor"></path></g><g fill="currentColor" stroke="none" data-name="staff-extra clef"><path data-name="clefs.F" d="M 26.3 117.492c 0.36 -0.03 1.65 0 2.13 0.03c 3.6 0.42 6.03 2.1 6.93 4.86c 0.27 0.84 0.36 1.5 0.36 2.58c 0 0.9 -0.03 1.35 -0.18 2.16c -0.78 3.78 -3.54 7.08 -8.37 9.96c -1.74 1.05 -3.87 2.13 -6.18 3.12c -0.39 0.18 -0.75 0.33 -0.81 0.36c -0.06 0.03 -0.15 0.06 -0.18 0.06c -0.15 0 -0.33 -0.18 -0.33 -0.33c 0 -0.15 0.06 -0.21 0.51 -0.48c 3 -1.77 5.13 -3.21 6.84 -4.74c 0.51 -0.45 1.59 -1.5 1.95 -1.95c 1.89 -2.19 2.88 -4.32 3.15 -6.78c 0.06 -0.42 0.06 -1.77 0 -2.19c -0.24 -2.01 -0.93 -3.63 -2.04 -4.71c -0.63 -0.63 -1.29 -1.02 -2.07 -1.2c -1.62 -0.39 -3.36 0.15 -4.56 1.44c -0.54 0.6 -1.05 1.47 -1.32 2.22l -0.09 0.21l 0.24 -0.12c 0.39 -0.21 0.63 -0.24 1.11 -0.24c 0.3 0 0.45 0 0.66 0.06c 1.92 0.48 2.85 2.55 1.95 4.38c -0.45 0.99 -1.41 1.62 -2.46 1.71c -1.47 0.09 -2.91 -0.87 -3.39 -2.25c -0.18 -0.57 -0.21 -1.32 -0.03 -2.28c 0.39 -2.25 1.83 -4.2 3.81 -5.19c 0.69 -0.36 1.59 -0.6 2.37 -0.69zm 11.58 2.52c 0.84 -0.21 1.71 0.3 1.89 1.14c 0.3 1.17 -0.72 2.19 -1.89 1.89c -0.99 -0.21 -1.5 -1.32 -1.02 -2.25c 0.18 -0.39 0.6 -0.69 1.02 -0.78zm 0 7.5c 0.84 -0.21 1.71 0.3 1.89 1.14c 0.21 0.87 -0.3 1.71 -1.14 1.89c -0.87 0.21 -1.71 -0.3 -1.89 -1.14c -0.21 -0.84 0.3 -1.71 1.14 -1.89z"></path></g><g fill="currentColor" stroke="none" data-name="note" selectable="false" data-index="0"><path data-name="C" d="M 56.242999999999995 105.742c 0.36 -0.03 1.2 0 1.53 0.06c 1.17 0.24 1.89 0.84 2.16 1.83c 0.06 0.18 0.06 0.3 0.06 0.66c 0 0.45 0 0.63 -0.15 1.08c -0.66 2.04 -3.06 3.93 -5.52 4.38c -0.54 0.09 -1.44 0.09 -1.83 0.03c -1.23 -0.27 -1.98 -0.87 -2.25 -1.86c -0.06 -0.18 -0.06 -0.3 -0.06 -0.66c 0 -0.45 0 -0.63 0.15 -1.08c 0.24 -0.78 0.75 -1.53 1.44 -2.22c 1.2 -1.2 2.85 -2.01 4.47 -2.22z" class="abcjs-notehead"></path><path d="M 48.15 109.44 L 61.96 109.44 L 61.96 110.14 L 48.15 110.14 z" stroke="none" fill="currentColor" data-name="ledger" class="abcjs-ledger"></path><path d="M 50.15 138.85L 50.15 110.57L 50.75 110.57L 50.75 138.85z" class="abcjs-stem" data-name="stem"></path></g><g fill="currentColor" stroke="none" data-name="note" selectable="false" data-index="1"><path data-name="D" d="M 86.243 101.867c 0.36 -0.03 1.2 0 1.53 0.06c 1.17 0.24 1.89 0.84 2.16 1.83c 0.06 0.18 0.06 0.3 0.06 0.66c 0 0.45 0 0.63 -0.15 1.08c -0.66 2.04 -3.06 3.93 -5.52 4.38c -0.54 0.09 -1.44 0.09 -1.83 0.03c -1.23 -0.27 -1.98 -0.87 -2.25 -1.86c -0.06 -0.18 -0.06 -0.3 -0.06 -0.66c 0 -0.45 0 -0.63 0.15 -1.08c 0.24 -0.78 0.75 -1.53 1.44 -2.22c 1.2 -1.2 2.85 -2.01 4.47 -2.22z" class="abcjs-notehead"></path><path d="M 78.15 109.44 L 91.96 109.44 L 91.96 110.14 L 78.15 110.14 z" stroke="none" fill="currentColor" data-name="ledger" class="abcjs-ledger"></path><path d="M 80.15 136.29L 80.15 106.69L 80.75 106.69L 80.75 136.29z" class="abcjs-stem" data-name="stem"></path></g><g fill="currentColor" stroke="none" data-name="note" selectable="false" data-index="2"><path data-name="E" d="M 116.243 97.992c 0.36 -0.03 1.2 0 1.53 0.06c 1.17 0.24 1.89 0.84 2.16 1.83c 0.06 0.18 0.06 0.3 0.06 0.66c 0 0.45 0 0.63 -0.15 1.08c -0.66 2.04 -3.06 3.93 -5.52 4.38c -0.54 0.09 -1.44 0.09 -1.83 0.03c -1.23 -0.27 -1.98 -0.87 -2.25 -1.86c -0.06 -0.18 -0.06 -0.3 -0.06 -0.66c 0 -0.45 0 -0.63 0.15 -1.08c 0.24 -0.78 0.75 -1.53 1.44 -2.22c 1.2 -1.2 2.85 -2.01 4.47 -2.22z" class="abcjs-notehead"></path><path d="M 108.15 101.69 L 121.96 101.69 L 121.96 102.39 L 108.15 102.39 z" stroke="none" fill="currentColor" data-name="ledger" class="abcjs-ledger"></path><path d="M 108.15 109.44 L 121.96 109.44 L 121.96 110.14 L 108.15 110.14 z" stroke="none" fill="currentColor" data-name="ledger" class="abcjs-ledger"></path><path d="M 110.15 133.72L 110.15 102.82L 110.75 102.82L 110.75 133.72z" class="abcjs-stem" data-name="stem"></path></g><g fill="currentColor" stroke="none" data-name="note" selectable="false" data-index="3"><path data-name="F" d="M 146.243 94.117c 0.36 -0.03 1.2 0 1.53 0.06c 1.17 0.24 1.89 0.84 2.16 1.83c 0.06 0.18 0.06 0.3 0.06 0.66c 0 0.45 0 0.63 -0.15 1.08c -0.66 2.04 -3.06 3.93 -5.52 4.38c -0.54 0.09 -1.44 0.09 -1.83 0.03c -1.23 -0.27 -1.98 -0.87 -2.25 -1.86c -0.06 -0.18 -0.06 -0.3 -0.06 -0.66c 0 -0.45 0 -0.63 0.15 -1.08c 0.24 -0.78 0.75 -1.53 1.44 -2.22c 1.2 -1.2 2.85 -2.01 4.47 -2.22z" class="abcjs-notehead"></path><path d="M 138.15 101.69 L 151.96 101.69 L 151.96 102.39 L 138.15 102.39 z" stroke="none" fill="currentColor" data-name="ledger" class="abcjs-ledger"></path><path d="M 138.15 109.44 L 151.96 109.44 L 151.96 110.14 L 138.15 110.14 z" stroke="none" fill="currentColor" data-name="ledger" class="abcjs-ledger"></path><path d="M 140.15 131.16L 140.15 98.94L 140.75 98.94L 140.75 131.16z" class="abcjs-stem" data-name="stem"></path></g><g fill="currentColor" stroke="none" data-name="bar"><path d="M 170.15 148.54L 170.15 117.54L 170.75 117.54L 170.75 148.54z" data-name="bar"></path></g><g fill="currentColor" stroke="none" data-name="note" selectable="false" data-index="4"><path data-name="G" d="M 187.243 90.242c 0.36 -0.03 1.2 0 1.53 0.06c 1.17 0.24 1.89 0.84 2.16 1.83c 0.06 0.18 0.06 0.3 0.06 0.66c 0 0.45 0 0.63 -0.15 1.08c -0.66 2.04 -3.06 3.93 -5.52 4.38c -0.54 0.09 -1.44 0.09 -1.83 0.03c -1.23 -0.27 -1.98 -0.87 -2.25 -1.86c -0.06 -0.18 -0.06 -0.3 -0.06 -0.66c 0 -0.45 0 -0.63 0.15 -1.08c 0.24 -0.78 0.75 -1.53 1.44 -2.22c 1.2 -1.2 2.85 -2.01 4.47 -2.22z" class="abcjs-notehead"></path><path d="M 179.15 93.94 L 192.96 93.94 L 192.96 94.64 L 179.15 94.64 z" stroke="none" fill="currentColor" data-name="ledger" class="abcjs-ledger"></path><path d="M 179.15 101.69 L 192.96 101.69 L 192.96 102.39 L 179.15 102.39 z" stroke="none" fill="currentColor" data-name="ledger" class="abcjs-ledger"></path><path d="M 179.15 109.44 L 192.96 109.44 L 192.96 110.14 L 179.15 110.14 z" stroke="none" fill="currentColor" data-name="ledger" class="abcjs-ledger"></path><path d="M 181.15 131.1L 181.15 95.07L 181.75 95.07L 181.75 131.1z" class="abcjs-stem" data-name="stem"></path></g><g fill="currentColor" stroke="none" data-name="note" selectable="false" data-index="5"><path data-name="A" d="M 217.243 86.367c 0.36 -0.03 1.2 0 1.53 0.06c 1.17 0.24 1.89 0.84 2.16 1.83c 0.06 0.18 0.06 0.3 0.06 0.66c 0 0.45 0 0.63 -0.15 1.08c -0.66 2.04 -3.06 3.93 -5.52 4.38c -0.54 0.09 -1.44 0.09 -1.83 0.03c -1.23 -0.27 -1.98 -0.87 -2.25 -1.86c -0.06 -0.18 -0.06 -0.3 -0.06 -0.66c 0 -0.45 0 -0.63 0.15 -1.08c 0.24 -0.78 0.75 -1.53 1.44 -2.22c 1.2 -1.2 2.85 -2.01 4.47 -2.22z" class="abcjs-notehead"></path><path d="M 209.15 93.94 L 222.96 93.94 L 222.96 94.64 L 209.15 94.64 z" stroke="none" fill="currentColor" data-name="ledger" class="abcjs-ledger"></path><path d="M 209.15 101.69 L 222.96 101.69 L 222.96 102.39 L 209.15 102.39 z" stroke="none" fill="currentColor" data-name="ledger" class="abcjs-ledger"></path><path d="M 209.15 109.44 L 222.96 109.44 L 222.96 110.14 L 209.15 110.14 z" stroke="none" fill="currentColor" data-name="ledger" class="abcjs-ledger"></path><path d="M 211.15 131.1L 211.15 91.19L 211.75 91.19L 211.75 131.1z" class="abcjs-stem" data-name="stem"></path></g><g fill="currentColor" stroke="none" data-name="note" selectable="false" data-index="6"><path data-name="B" d="M 247.243 82.492c 0.36 -0.03 1.2 0 1.53 0.06c 1.17 0.24 1.89 0.84 2.16 1.83c 0.06 0.18 0.06 0.3 0.06 0.66c 0 0.45 0 0.63 -0.15 1.08c -0.66 2.04 -3.06 3.93 -5.52 4.38c -0.54 0.09 -1.44 0.09 -1.83 0.03c -1.23 -0.27 -1.98 -0.87 -2.25 -1.86c -0.06 -0.18 -0.06 -0.3 -0.06 -0.66c 0 -0.45 0 -0.63 0.15 -1.08c 0.24 -0.78 0.75 -1.53 1.44 -2.22c 1.2 -1.2 2.85 -2.01 4.47 -2.22z" class="abcjs-notehead"></path><path d="M 239.15 86.19 L 252.96 86.19 L 252.96 86.89 L 239.15 86.89 z" stroke="none" fill="currentColor" data-name="ledger" class="abcjs-ledger"></path><path d="M 239.15 93.94 L 252.96 93.94 L 252.96 94.64 L 239.15 94.64 z" stroke="none" fill="currentColor" data-name="ledger" class="abcjs-ledger"></path><path d="M 239.15 101.69 L 252.96 101.69 L 252.96 102.39 L 239.15 102.39 z" stroke="none" fill="currentColor" data-name="ledger" class="abcjs-ledger"></path><path d="M 239.15 109.44 L 252.96 109.44 L 252.96 110.14 L 239.15 110.14 z" stroke="none" fill="currentColor" data-name="ledger" class="abcjs-ledger"></path><path d="M 241.15 131.1L 241.15 87.32L 241.75 87.32L 241.75 131.1z" class="abcjs-stem" data-name="stem"></path></g><g fill="currentColor" stroke="none" data-name="note" selectable="false" data-index="7"><path data-name="c" d="M 277.243 78.617c 0.36 -0.03 1.2 0 1.53 0.06c 1.17 0.24 1.89 0.84 2.16 1.83c 0.06 0.18 0.06 0.3 0.06 0.66c 0 0.45 0 0.63 -0.15 1.08c -0.66 2.04 -3.06 3.93 -5.52 4.38c -0.54 0.09 -1.44 0.09 -1.83 0.03c -1.23 -0.27 -1.98 -0.87 -2.25 -1.86c -0.06 -0.18 -0.06 -0.3 -0.06 -0.66c 0 -0.45 0 -0.63 0.15 -1.08c 0.24 -0.78 0.75 -1.53 1.44 -2.22c 1.2 -1.2 2.85 -2.01 4.47 -2.22z" class="abcjs-notehead abcjs-chord-pos-1"></path><path data-name="e" d="M 277.243 70.867c 0.36 -0.03 1.2 0 1.53 0.06c 1.17 0.24 1.89 0.84 2.16 1.83c 0.06 0.18 0.06 0.3 0.06 0.66c 0 0.45 0 0.63 -0.15 1.08c -0.66 2.04 -3.06 3.93 -5.52 4.38c -0.54 0.09 -1.44 0.09 -1.83 0.03c -1.23 -0.27 -1.98 -0.87 -2.25 -1.86c -0.06 -0.18 -0.06 -0.3 -0.06 -0.66c 0 -0.45 0 -0.63 0.15 -1.08c 0.24 -0.78 0.75 -1.53 1.44 -2.22c 1.2 -1.2 2.85 -2.01 4.47 -2.22z" class="abcjs-notehead abcjs-chord-pos-2"></path><path data-name="g" d="M 277.243 63.117000000000004c 0.36 -0.03 1.2 0 1.53 0.06c 1.17 0.24 1.89 0.84 2.16 1.83c 0.06 0.18 0.06 0.3 0.06 0.66c 0 0.45 0 0.63 -0.15 1.08c -0.66 2.04 -3.06 3.93 -5.52 4.38c -0.54 0.09 -1.44 0.09 -1.83 0.03c -1.23 -0.27 -1.98 -0.87 -2.25 -1.86c -0.06 -0.18 -0.06 -0.3 -0.06 -0.66c 0 -0.45 0 -0.63 0.15 -1.08c 0.24 -0.78 0.75 -1.53 1.44 -2.22c 1.2 -1.2 2.85 -2.01 4.47 -2.22z" class="abcjs-notehead abcjs-chord-pos-3"></path><path d="M 271.15 133.04L 271.15 68.46L 272.15 68.46L 272.15 133.04z" class="abcjs-stem" data-name="stem"></path><path d="M 269.15 70.69 L 282.96 70.69 L 282.96 71.39 L 269.15 71.39 z" stroke="none" fill="currentColor" data-name="ledger" class="abcjs-ledger"></path><path d="M 269.15 78.44 L 282.96 78.44 L 282.96 79.14 L 269.15 79.14 z" stroke="none" fill="currentColor" data-name="ledger" class="abcjs-ledger"></path><path d="M 269.15 86.19 L 282.96 86.19 L 282.96 86.89 L 269.15 86.89 z" stroke="none" fill="currentColor" data-name="ledger" class="abcjs-ledger"></path><path d="M 269.15 93.94 L 282.96 93.94 L 282.96 94.64 L 269.15 94.64 z" stroke="none" fill="currentColor" data-name="ledger" class="abcjs-ledger"></path><path d="M 269.15 101.69 L 282.96 101.69 L 282.96 102.39 L 269.15 102.39 z" stroke="none" fill="currentColor" data-name="ledger" class="abcjs-ledger"></path><path d="M 269.15 109.44 L 282.96 109.44 L 282.96 110.14 L 269.15 110.14 z" stroke="none" fill="currentColor" data-name="ledger" class="abcjs-ledger"></path></g><g fill="currentColor" stroke="none" data-name="bar"><path d="M 313.58 148.54L 313.58 117.54L 314.18 117.54L 314.18 148.54z" data-name="bar"></path></g><path d="M50.15 140.79 L140.75 133.04L140.75 129.16 L50.15 136.91z" stroke="none" fill="currentColor" class=""></path><path d="M181.15 133.04 L241.75 133.04L241.75 129.16 L181.15 129.16z" stroke="none" fill="currentColor" class=""></path></g></svg>