<svg xmlns:xlink="http://www.w3.org/1999/xlink" role="img" fill="currentColor" stroke="currentColor" aria-label="Sheet Music for &quot;Text Between Lines&quot;" width="700" height="265.15200000000004"><style>.abcjs-dragging-in-progress text, .abcjs-dragging-in-progress tspan {-webkit-touch-callout: none; -webkit-user-select: none; -khtml-user-select: none; -moz-user-select: none; -ms-user-select: none; user-select: none;}</style><title>Sheet Music for "Text Between Lines"</title><g><text stroke="none" font-size="27" font-style="normal" font-family="Times New Roman" font-weight="normal" text-decoration="none" class="" text-anchor="middle" x="350" y="49.56" data-name="title"><tspan x="350">Text Between Lines</tspan></text></g><g><g><path d="M 15 77.2 L 685 77.2 L 685 77.9 L 15 77.9 z" stroke="none" fill="currentColor" class="abcjs-top-line"></path><path d="M 15 84.95 L 685 84.95 L 685 85.65 L 15 85.65 z" stroke="none" fill="currentColor"></path><path d="M 15 92.7 L 685 92.7 L 685 93.4 L 15 93.4 z" stroke="none" fill="currentColor"></path><path d="M 15 100.45 L 685 100.45 L 685 101.15 L 15 101.15 z" stroke="none" fill="currentColor"></path><path d="M 15 108.2 L 685 108.2 L 685 108.9 L 15 108.9 z" stroke="none" fill="currentColor"></path></g><g fill="currentColor" stroke="none" data-name="staff-extra clef"><path data-name="clefs.G" d="M 29.689999999999998 63.39200000000001c 0.09 -0.09 0.24 -0.06 0.36 0c 0.12 0.09 0.57 0.6 0.96 1.11c 1.77 2.34 3.21 5.85 3.57 8.73c 0.21 1.56 0.03 3.27 -0.45 4.86c -0.69 2.31 -1.92 4.47 -4.23 7.44c -0.3 0.39 -0.57 0.72 -0.6 0.75c -0.03 0.06 0 0.15 0.18 0.78c 0.54 1.68 1.38 4.44 1.68 5.49l 0.09 0.42l 0.39 0c 1.47 0.09 2.76 0.51 3.96 1.29c 1.83 1.23 3.06 3.21 3.39 5.52c 0.09 0.45 0.12 1.29 0.06 1.74c -0.09 1.02 -0.33 1.83 -0.75 2.73c -0.84 1.71 -2.28 3.06 -4.02 3.72l -0.33 0.12l 0.03 1.26c 0 1.74 -0.06 3.63 -0.21 4.62c -0.45 3.06 -2.19 5.49 -4.47 6.21c -0.57 0.18 -0.9 0.21 -1.59 0.21c -0.69 0 -1.02 -0.03 -1.65 -0.21c -1.14 -0.27 -2.13 -0.84 -2.94 -1.65c -0.99 -0.99 -1.56 -2.16 -1.71 -3.54c -0.09 -0.81 0.06 -1.53 0.45 -2.13c 0.63 -0.99 1.83 -1.56 3 -1.53c 1.5 0.09 2.64 1.32 2.73 2.94c 0.06 1.47 -0.93 2.7 -2.37 2.97c -0.45 0.06 -0.84 0.03 -1.29 -0.09l -0.21 -0.09l 0.09 0.12c 0.39 0.54 0.78 0.93 1.32 1.26c 1.35 0.87 3.06 1.02 4.35 0.36c 1.44 -0.72 2.52 -2.28 2.97 -4.35c 0.15 -0.66 0.24 -1.5 0.3 -3.03c 0.03 -0.84 0.03 -2.94 0 -3c -0.03 0 -0.18 0 -0.36 0.03c -0.66 0.12 -0.99 0.12 -1.83 0.12c -1.05 0 -1.71 -0.06 -2.61 -0.3c -4.02 -0.99 -7.11 -4.35 -7.8 -8.46c -0.12 -0.66 -0.12 -0.99 -0.12 -1.83c 0 -0.84 0 -1.14 0.15 -1.92c 0.36 -2.28 1.41 -4.62 3.3 -7.29l 2.79 -3.6c 0.54 -0.66 0.96 -1.2 0.96 -1.23c 0 -0.03 -0.09 -0.33 -0.18 -0.69c -0.96 -3.21 -1.41 -5.28 -1.59 -7.68c -0.12 -1.38 -0.15 -3.09 -0.06 -3.96c 0.33 -2.67 1.38 -5.07 3.12 -7.08c 0.36 -0.42 0.99 -1.05 1.17 -1.14zm 2.01 4.71c -0.15 -0.3 -0.3 -0.54 -0.3 -0.54c -0.03 0 -0.18 0.09 -0.3 0.21c -2.4 1.74 -3.87 4.2 -4.26 7.11c -0.06 0.54 -0.06 1.41 -0.03 1.89c 0.09 1.29 0.48 3.12 1.08 5.22c 0.15 0.42 0.24 0.78 0.24 0.81c 0 0.03 0.84 -1.11 1.23 -1.68c 1.89 -2.73 2.88 -5.07 3.15 -7.53c 0.09 -0.57 0.12 -1.74 0.06 -2.37c -0.09 -1.23 -0.27 -1.92 -0.87 -3.12zm -2.94 20.7c -0.21 -0.72 -0.39 -1.32 -0.42 -1.32c 0 0 -1.2 1.47 -1.86 2.37c -2.79 3.63 -4.02 6.3 -4.35 9.3c -0.03 0.21 -0.03 0.69 -0.03 1.08c 0 0.69 0 0.75 0.06 1.11c 0.12 0.54 0.27 0.99 0.51 1.47c 0.69 1.38 1.83 2.55 3.42 3.42c 0.96 0.54 2.07 0.9 3.21 1.08c 0.78 0.12 2.04 0.12 2.94 -0.03c 0.51 -0.06 0.45 -0.03 0.42 -0.3c -0.24 -3.33 -0.72 -6.33 -1.62 -10.08c -0.09 -0.39 -0.18 -0.75 -0.18 -0.78c -0.03 -0.03 -0.42 0 -0.81 0.09c -0.9 0.18 -1.65 0.57 -2.22 1.14c -0.72 0.72 -1.08 1.65 -1.05 2.64c 0.06 0.96 0.48 1.83 1.23 2.58c 0.36 0.36 0.72 0.63 1.17 0.9c 0.33 0.18 0.36 0.21 0.42 0.33c 0.18 0.42 -0.18 0.9 -0.6 0.87c -0.18 -0.03 -0.84 -0.36 -1.26 -0.63c -0.78 -0.51 -1.38 -1.11 -1.86 -1.83c -1.77 -2.7 -0.99 -6.42 1.71 -8.19c 0.3 -0.21 0.81 -0.48 1.17 -0.63c 0.3 -0.09 1.02 -0.3 1.14 -0.3c 0.06 0 0.09 0 0.09 -0.03c 0.03 -0.03 -0.51 -1.92 -1.23 -4.26zm 3.78 7.41c -0.18 -0.03 -0.36 -0.06 -0.39 -0.06c -0.03 0 0 0.21 0.18 1.02c 0.75 3.18 1.26 6.3 1.5 9.09c 0.06 0.72 0 0.69 0.51 0.42c 0.78 -0.36 1.44 -0.96 1.98 -1.77c 1.08 -1.62 1.2 -3.69 0.3 -5.55c -0.81 -1.62 -2.31 -2.79 -4.08 -3.15z"></path></g><g fill="currentColor" stroke="none" data-name="note" selectable="false" data-index="0"><path data-name="C" d="M 55.141000000000005 112.25200000000001c 0.36 -0.03 1.2 0 1.53 0.06c 1.17 0.24 1.89 0.84 2.16 1.83c 0.06 0.18 0.06 0.3 0.06 0.66c 0 0.45 0 0.63 -0.15 1.08c -0.66 2.04 -3.06 3.93 -5.52 4.38c -0.54 0.09 -1.44 0.09 -1.83 0.03c -1.23 -0.27 -1.98 -0.87 -2.25 -1.86c -0.06 -0.18 -0.06 -0.3 -0.06 -0.66c 0 -0.45 0 -0.63 0.15 -1.08c 0.24 -0.78 0.75 -1.53 1.44 -2.22c 1.2 -1.2 2.85 -2.01 4.47 -2.22z" class="abcjs-notehead"></path><path d="M 58.86 89.18L 58.86 115.01L 57.86 115.01L 57.86 89.18z" class="abcjs-stem" data-name="stem"></path><path d="M 47.05 115.95 L 60.86 115.95 L 60.86 116.65 L 47.05 116.65 z" stroke="none" fill="currentColor" data-name="ledger" class="abcjs-ledger"></path></g><g fill="currentColor" stroke="none" data-name="note" selectable="false" data-index="1"><path data-name="D" d="M 213.87825 108.37700000000001c 0.36 -0.03 1.2 0 1.53 0.06c 1.17 0.24 1.89 0.84 2.16 1.83c 0.06 0.18 0.06 0.3 0.06 0.66c 0 0.45 0 0.63 -0.15 1.08c -0.66 2.04 -3.06 3.93 -5.52 4.38c -0.54 0.09 -1.44 0.09 -1.83 0.03c -1.23 -0.27 -1.98 -0.87 -2.25 -1.86c -0.06 -0.18 -0.06 -0.3 -0.06 -0.66c 0 -0.45 0 -0.63 0.15 -1.08c 0.24 -0.78 0.75 -1.53 1.44 -2.22c 1.2 -1.2 2.85 -2.01 4.47 -2.22z" class="abcjs-notehead"></path><path d="M 217.6 85.3L 217.6 111.14L 216.6 111.14L 216.6 85.3z" class="abcjs-stem" data-name="stem"></path></g><g fill="currentColor" stroke="none" data-name="note" selectable="false" data-index="2"><path data-name="E" d="M 372.6155 104.50200000000001c 0.36 -0.03 1.2 0 1.53 0.06c 1.17 0.24 1.89 0.84 2.16 1.83c 0.06 0.18 0.06 0.3 0.06 0.66c 0 0.45 0 0.63 -0.15 1.08c -0.66 2.04 -3.06 3.93 -5.52 4.38c -0.54 0.09 -1.44 0.09 -1.83 0.03c -1.23 -0.27 -1.98 -0.87 -2.25 -1.86c -0.06 -0.18 -0.06 -0.3 -0.06 -0.66c 0 -0.45 0 -0.63 0.15 -1.08c 0.24 -0.78 0.75 -1.53 1.44 -2.22c 1.2 -1.2 2.85 -2.01 4.47 -2.22z" class="abcjs-notehead"></path><path d="M 376.34 81.43L 376.34 107.26L 375.34 107.26L 375.34 81.43z" class="abcjs-stem" data-name="stem"></path></g><g fill="currentColor" stroke="none" data-name="note" selectable="false" data-index="3"><path data-name="F" d="M 531.3527500000001 100.62700000000001c 0.36 -0.03 1.2 0 1.53 0.06c 1.17 0.24 1.89 0.84 2.16 1.83c 0.06 0.18 0.06 0.3 0.06 0.66c 0 0.45 0 0.63 -0.15 1.08c -0.66 2.04 -3.06 3.93 -5.52 4.38c -0.54 0.09 -1.44 0.09 -1.83 0.03c -1.23 -0.27 -1.98 -0.87 -2.25 -1.86c -0.06 -0.18 -0.06 -0.3 -0.06 -0.66c 0 -0.45 0 -0.63 0.15 -1.08c 0.24 -0.78 0.75 -1.53 1.44 -2.22c 1.2 -1.2 2.85 -2.01 4.47 -2.22z" class="abcjs-notehead"></path><path d="M 535.07 77.55L 535.07 103.39L 534.07 103.39L 534.07 77.55z" class="abcjs-stem" data-name="stem"></path></g><g fill="currentColor" stroke="none" data-name="bar"><path d="M 684 108.55L 684 77.55L 684.6 77.55L 684.6 108.55z" data-name="bar"></path></g></g><g><text stroke="none" font-size="21" font-style="normal" font-family="Times New Roman" font-weight="normal" text-decoration="none" class="" text-anchor="start" x="15" y="151.85" data-name="free-text"><tspan x="15">between</tspan></text></g><g><g><path d="M 15 203.3 L 219.76 203.3 L 219.76 204 L 15 204 z" stroke="none" fill="currentColor" class="abcjs-top-line"></path><path d="M 15 211.05 L 219.76 211.05 L 219.76 211.75 L 15 211.75 z" stroke="none" fill="currentColor"></path><path d="M 15 218.8 L 219.76 218.8 L 219.76 219.5 L 15 219.5 z" stroke="none" fill="currentColor"></path><path d="M 15 226.55 L 219.76 226.55 L 219.76 227.25 L 15 227.25 z" stroke="none" fill="currentColor"></path><path d="M 15 234.3 L 219.76 234.3 L 219.76 235 L 15 235 z" stroke="none" fill="currentColor"></path></g><g fill="currentColor" stroke="none" data-name="staff-extra clef"><path data-name="clefs.G" d="M 29.689999999999998 189.49200000000005c 0.09 -0.09 0.24 -0.06 0.36 0c 0.12 0.09 0.57 0.6 0.96 1.11c 1.77 2.34 3.21 5.85 3.57 8.73c 0.21 1.56 0.03 3.27 -0.45 4.86c -0.69 2.31 -1.92 4.47 -4.23 7.44c -0.3 0.39 -0.57 0.72 -0.6 0.75c -0.03 0.06 0 0.15 0.18 0.78c 0.54 1.68 1.38 4.44 1.68 5.49l 0.09 0.42l 0.39 0c 1.47 0.09 2.76 0.51 3.96 1.29c 1.83 1.23 3.06 3.21 3.39 5.52c 0.09 0.45 0.12 1.29 0.06 1.74c -0.09 1.02 -0.33 1.83 -0.75 2.73c -0.84 1.71 -2.28 3.06 -4.02 3.72l -0.33 0.12l 0.03 1.26c 0 1.74 -0.06 3.63 -0.21 4.62c -0.45 3.06 -2.19 5.49 -4.47 6.21c -0.57 0.18 -0.9 0.21 -1.59 0.21c -0.69 0 -1.02 -0.03 -1.65 -0.21c -1.14 -0.27 -2.13 -0.84 -2.94 -1.65c -0.99 -0.99 -1.56 -2.16 -1.71 -3.54c -0.09 -0.81 0.06 -1.53 0.45 -2.13c 0.63 -0.99 1.83 -1.56 3 -1.53c 1.5 0.09 2.64 1.32 2.73 2.94c 0.06 1.47 -0.93 2.7 -2.37 2.97c -0.45 0.06 -0.84 0.03 -1.29 -0.09l -0.21 -0.09l 0.09 0.12c 0.39 0.54 0.78 0.93 1.32 1.26c 1.35 0.87 3.06 1.02 4.35 0.36c 1.44 -0.72 2.52 -2.28 2.97 -4.35c 0.15 -0.66 0.24 -1.5 0.3 -3.03c 0.03 -0.84 0.03 -2.94 0 -3c -0.03 0 -0.18 0 -0.36 0.03c -0.66 0.12 -0.99 0.12 -1.83 0.12c -1.05 0 -1.71 -0.06 -2.61 -0.3c -4.02 -0.99 -7.11 -4.35 -7.8 -8.46c -0.12 -0.66 -0.12 -0.99 -0.12 -1.83c 0 -0.84 0 -1.14 0.15 -1.92c 0.36 -2.28 1.41 -4.62 3.3 -7.29l 2.79 -3.6c 0.54 -0.66 0.96 -1.2 0.96 -1.23c 0 -0.03 -0.09 -0.33 -0.18 -0.69c -0.96 -3.21 -1.41 -5.28 -1.59 -7.68c -0.12 -1.38 -0.15 -3.09 -0.06 -3.96c 0.33 -2.67 1.38 -5.07 3.12 -7.08c 0.36 -0.42 0.99 -1.05 1.17 -1.14zm 2.01 4.71c -0.15 -0.3 -0.3 -0.54 -0.3 -0.54c -0.03 0 -0.18 0.09 -0.3 0.21c -2.4 1.74 -3.87 4.2 -4.26 7.11c -0.06 0.54 -0.06 1.41 -0.03 1.89c 0.09 1.29 0.48 3.12 1.08 5.22c 0.15 0.42 0.24 0.78 0.24 0.81c 0 0.03 0.84 -1.11 1.23 -1.68c 1.89 -2.73 2.88 -5.07 3.15 -7.53c 0.09 -0.57 0.12 -1.74 0.06 -2.37c -0.09 -1.23 -0.27 -1.92 -0.87 -3.12zm -2.94 20.7c -0.21 -0.72 -0.39 -1.32 -0.42 -1.32c 0 0 -1.2 1.47 -1.86 2.37c -2.79 3.63 -4.02 6.3 -4.35 9.3c -0.03 0.21 -0.03 0.69 -0.03 1.08c 0 0.69 0 0.75 0.06 1.11c 0.12 0.54 0.27 0.99 0.51 1.47c 0.69 1.38 1.83 2.55 3.42 3.42c 0.96 0.54 2.07 0.9 3.21 1.08c 0.78 0.12 2.04 0.12 2.94 -0.03c 0.51 -0.06 0.45 -0.03 0.42 -0.3c -0.24 -3.33 -0.72 -6.33 -1.62 -10.08c -0.09 -0.39 -0.18 -0.75 -0.18 -0.78c -0.03 -0.03 -0.42 0 -0.81 0.09c -0.9 0.18 -1.65 0.57 -2.22 1.14c -0.72 0.72 -1.08 1.65 -1.05 2.64c 0.06 0.96 0.48 1.83 1.23 2.58c 0.36 0.36 0.72 0.63 1.17 0.9c 0.33 0.18 0.36 0.21 0.42 0.33c 0.18 0.42 -0.18 0.9 -0.6 0.87c -0.18 -0.03 -0.84 -0.36 -1.26 -0.63c -0.78 -0.51 -1.38 -1.11 -1.86 -1.83c -1.77 -2.7 -0.99 -6.42 1.71 -8.19c 0.3 -0.21 0.81 -0.48 1.17 -0.63c 0.3 -0.09 1.02 -0.3 1.14 -0.3c 0.06 0 0.09 0 0.09 -0.03c 0.03 -0.03 -0.51 -1.92 -1.23 -4.26zm 3.78 7.41c -0.18 -0.03 -0.36 -0.06 -0.39 -0.06c -0.03 0 0 0.21 0.18 1.02c 0.75 3.18 1.26 6.3 1.5 9.09c 0.06 0.72 0 0.69 0.51 0.42c 0.78 -0.36 1.44 -0.96 1.98 -1.77c 1.08 -1.62 1.2 -3.69 0.3 -5.55c -0.81 -1.62 -2.31 -2.79 -4.08 -3.15z"></path></g><g fill="currentColor" stroke="none" data-name="note" selectable="false" data-index="4"><path data-name="G" d="M 55.141000000000005 222.85200000000003c 0.36 -0.03 1.2 0 1.53 0.06c 1.17 0.24 1.89 0.84 2.16 1.83c 0.06 0.18 0.06 0.3 0.06 0.66c 0 0.45 0 0.63 -0.15 1.08c -0.66 2.04 -3.06 3.93 -5.52 4.38c -0.54 0.09 -1.44 0.09 -1.83 0.03c -1.23 -0.27 -1.98 -0.87 -2.25 -1.86c -0.06 -0.18 -0.06 -0.3 -0.06 -0.66c 0 -0.45 0 -0.63 0.15 -1.08c 0.24 -0.78 0.75 -1.53 1.44 -2.22c 1.2 -1.2 2.85 -2.01 4.47 -2.22z" class="abcjs-notehead"></path><path d="M 58.86 199.78L 58.86 225.61L 57.86 225.61L 57.86 199.78z" class="abcjs-stem" data-name="stem"></path></g><g fill="currentColor" stroke="none" data-name="note" selectable="false" data-index="5"><path data-name="A" d="M 97.56740687119286 218.97700000000003c 0.36 -0.03 1.2 0 1.53 0.06c 1.17 0.24 1.89 0.84 2.16 1.83c 0.06 0.18 0.06 0.3 0.06 0.66c 0 0.45 0 0.63 -0.15 1.08c -0.66 2.04 -3.06 3.93 -5.52 4.38c -0.54 0.09 -1.44 0.09 -1.83 0.03c -1.23 -0.27 -1.98 -0.87 -2.25 -1.86c -0.06 -0.18 -0.06 -0.3 -0.06 -0.66c 0 -0.45 0 -0.63 0.15 -1.08c 0.24 -0.78 0.75 -1.53 1.44 -2.22c 1.2 -1.2 2.85 -2.01 4.47 -2.22z" class="abcjs-notehead"></path><path d="M 101.29 195.9L 101.29 221.74L 100.29 221.74L 100.29 195.9z" class="abcjs-stem" data-name="stem"></path></g><g fill="currentColor" stroke="none" data-name="note" selectable="false" data-index="6"><path data-name="B" d="M 139.9938137423857 215.10200000000003c 0.36 -0.03 1.2 0 1.53 0.06c 1.17 0.24 1.89 0.84 2.16 1.83c 0.06 0.18 0.06 0.3 0.06 0.66c 0 0.45 0 0.63 -0.15 1.08c -0.66 2.04 -3.06 3.93 -5.52 4.38c -0.54 0.09 -1.44 0.09 -1.83 0.03c -1.23 -0.27 -1.98 -0.87 -2.25 -1.86c -0.06 -0.18 -0.06 -0.3 -0.06 -0.66c 0 -0.45 0 -0.63 0.15 -1.08c 0.24 -0.78 0.75 -1.53 1.44 -2.22c 1.2 -1.2 2.85 -2.01 4.47 -2.22z" class="abcjs-notehead"></path><path d="M 133.9 246.28L 133.9 219.15L 134.9 219.15L 134.9 246.28z" class="abcjs-stem" data-name="stem"></path></g><g fill="currentColor" stroke="none" data-name="note" selectable="false" data-index="7"><path data-name="c" d="M 182.42022061357855 211.22700000000003c 0.36 -0.03 1.2 0 1.53 0.06c 1.17 0.24 1.89 0.84 2.16 1.83c 0.06 0.18 0.06 0.3 0.06 0.66c 0 0.45 0 0.63 -0.15 1.08c -0.66 2.04 -3.06 3.93 -5.52 4.38c -0.54 0.09 -1.44 0.09 -1.83 0.03c -1.23 -0.27 -1.98 -0.87 -2.25 -1.86c -0.06 -0.18 -0.06 -0.3 -0.06 -0.66c 0 -0.45 0 -0.63 0.15 -1.08c 0.24 -0.78 0.75 -1.53 1.44 -2.22c 1.2 -1.2 2.85 -2.01 4.47 -2.22z" class="abcjs-notehead"></path><path d="M 176.33 242.4L 176.33 216.57L 177.33 216.57L 177.33 242.4z" class="abcjs-stem" data-name="stem"></path></g><g fill="currentColor" stroke="none" data-name="bar"><path d="M 218.76 234.65L 218.76 203.65L 219.36 203.65L 219.36 234.65z" data-name="bar"></path></g></g></svg>